<?xml version="1.0" encoding="UTF-8"?>
<svg width="600px" height="505px" viewBox="0 0 600 505" version="1.1" xmlns="http://www.w3.org/2000/svg" xmlns:xlink="http://www.w3.org/1999/xlink">
    <title>交流</title>
    <defs>
        <polygon id="path-1" points="0.0672820513 0.251323077 525.021538 0.251323077 525.021538 123.076923 0.0672820513 123.076923"></polygon>
        <path d="M5.51384615,0.806153846 C14.1247179,-1.42441026 26.0545641,3.35507692 37.4108718,25.4186667 C48.7675897,47.4822564 47.5885128,84.241641 47.5885128,84.241641 L47.5885128,84.241641 L47.0203077,84.2962051 L43.2857436,84.2962051 C43.3948718,82.4332308 43.7718974,73.696 41.8235897,66.2469744 C38.1091282,52.048 26.2855385,35.6233846 16.1682051,28.4508718" id="path-3"></path>
        <polygon id="path-5" points="0 0.114379487 559.60681 0.114379487 559.60681 6.33222564 0 6.33222564"></polygon>
        <path d="M14.453418,9.62448039 C14.6080847,15.0509419 12.7229565,19.5654035 7.51270007,19.6548394 C3.52500776,19.7688906 0.16705904,15.4620189 0.012392373,10.0359676 C-0.142274294,4.60991629 1.09382827,0.172582956 6.95311032,0.00560859699 C13.4039821,-0.178596531 14.2987513,4.19842911 14.453418,9.62448039" id="path-7"></path>
    </defs>
    <g id="交流" stroke="none" stroke-width="1" fill="none" fill-rule="evenodd">
        <g id="编组" transform="translate(20.000000, 27.000000)">
            <g transform="translate(18.871795, 327.470769)">
                <mask id="mask-2" fill="white">
                    <use xlink:href="#path-1"></use>
                </mask>
                <g id="Clip-2"></g>
                <path d="M525.021538,0.251323077 L525.021538,24.2923487 C525.021538,78.6238359 480.568615,123.077169 426.236718,123.077169 L98.8521026,123.077169 C44.5202051,123.077169 0.0672820513,78.6238359 0.0672820513,24.2923487 L0.0672820513,0.251323077 L525.021538,0.251323077 Z" id="Fill-1" fill="#FCFBED" mask="url(#mask-2)"></path>
            </g>
            <path d="M334.973415,123.621128 C334.871672,107.739692 321.965415,94.8974359 306.060185,94.8974359 C297.293415,94.8974359 289.438646,98.8002051 284.136492,104.961846 C277.120287,98.3378462 267.660185,94.2758974 257.250338,94.2758974 C237.299569,94.2758974 220.832287,109.190359 218.390031,128.478154 C218.285826,128.476923 218.182031,128.474051 218.077415,128.474051 C198.503672,128.474051 182.635774,144.341949 182.635774,163.916103 C182.635774,167.967795 183.317621,171.859897 184.569723,175.486154 C183.235979,175.242051 181.863672,175.107897 180.459364,175.107897 C167.92521,175.107897 157.76439,185.269128 157.76439,197.802872 C157.76439,198.333333 157.789005,198.857641 157.824697,199.378667 C152.819979,196.974564 147.210954,195.626872 141.287262,195.626872 C120.167672,195.626872 103.047262,212.747282 103.047262,233.866872 C103.047262,236.210667 103.259364,238.505231 103.663467,240.733333 C98.9446974,238.523282 93.6794667,237.286769 88.1245949,237.286769 C67.8636718,237.286769 51.4390564,253.711385 51.4390564,273.971487 C51.4390564,277.991179 52.0876718,281.858667 53.2823385,285.477949 C38.5282872,287.599795 27.1892103,300.290256 27.1892103,315.631385 C27.1892103,318.206154 27.5211077,321.378667 28.1221333,323.766359 L334.973415,323.766359 L334.973415,123.621128 Z" id="Fill-3" fill="#78C7B2"></path>
            <path d="M317.619651,137.327056 C317.531856,122.5328 306.363446,110.570133 292.599754,110.570133 C285.012882,110.570133 278.215754,114.205415 273.627856,119.945313 C267.556472,113.775056 259.369805,109.990851 250.361395,109.990851 C233.096985,109.990851 218.846728,123.884185 216.733497,141.851364 C216.642831,141.850544 216.552985,141.848082 216.462728,141.848082 C199.524472,141.848082 185.792779,156.62921 185.792779,174.863056 C185.792779,178.637415 186.382728,182.263262 187.466215,185.641313 C186.312164,185.414031 185.124882,185.288903 183.909703,185.288903 C173.062933,185.288903 164.269908,194.754338 164.269908,206.430236 C164.269908,206.924595 164.291651,207.4128 164.322421,207.898544 C159.990933,205.658544 155.13719,204.403159 150.011036,204.403159 C131.735344,204.403159 116.920164,220.351467 116.920164,240.024903 C116.920164,242.208697 117.103549,244.346133 117.453087,246.421621 C113.369805,244.362954 108.813087,243.210954 104.006113,243.210954 C86.4733949,243.210954 72.2604718,258.511056 72.2604718,277.384492 C72.2604718,281.128903 72.8217026,284.731364 73.8551385,288.102851 C61.0875487,290.079467 51.2754462,301.901005 51.2754462,316.191877 C51.2754462,318.590236 51.5622154,321.545723 52.0828308,323.770133 L317.619651,323.770133 L317.619651,137.327056 Z" id="Fill-5" fill="#3DA98C"></path>
            <g transform="translate(275.692308, 241.316923)">
                <mask id="mask-4" fill="white">
                    <use xlink:href="#path-3"></use>
                </mask>
                <g id="Clip-10"></g>
            </g>
            <g transform="translate(0.000000, 322.547692)">
                <mask id="mask-6" fill="white">
                    <use xlink:href="#path-5"></use>
                </mask>
                <g id="Clip-36"></g>
                <path d="M556.497887,6.33222564 L3.10875897,6.33222564 C1.39224615,6.33222564 -0.000164102564,4.93981538 -0.000164102564,3.22330256 C-0.000164102564,1.50596923 1.39224615,0.114379487 3.10875897,0.114379487 L556.497887,0.114379487 C558.215221,0.114379487 559.60681,1.50596923 559.60681,3.22330256 C559.60681,4.93981538 558.215221,6.33222564 556.497887,6.33222564" id="Fill-35" fill="#4286A0" mask="url(#mask-6)"></path>
            </g>
            <path d="M228.558359,12.2381128 C226.306462,12.2381128 224.481231,10.4124718 224.481231,8.16057436 C224.481231,5.90826667 226.306462,4.08262564 228.558359,4.08262564 C228.674051,4.08262564 228.787692,4.09083077 228.900513,4.09985641 C229.734564,1.7121641 232.005744,-0.00188717949 234.678154,-0.00188717949 C237.357128,-0.00188717949 239.63241,1.71995897 240.461949,4.11708718 C240.627282,4.09657436 240.794256,4.08262564 240.964923,4.08262564 C241.610667,4.08262564 242.219897,4.23688205 242.762667,4.50436923 C243.64841,2.85472821 245.388718,1.73267692 247.39241,1.73267692 C250.293333,1.73267692 252.645333,4.08426667 252.645333,6.98518974 C252.645333,9.88652308 250.293333,12.2381128 247.39241,12.2381128 L228.558359,12.2381128 Z" id="Fill-37" fill="#BCE1E9"></path>
            <path d="M126.421374,83.16 C129.730913,83.16 132.413579,80.4773333 132.413579,77.1677949 C132.413579,73.8578462 129.730913,71.1751795 126.421374,71.1751795 C125.701785,71.1751795 125.015015,71.3081026 124.376246,71.5411282 C123.334195,67.5645128 119.716964,64.6307692 115.414195,64.6307692 C111.250913,64.6307692 107.729682,67.3762051 106.561682,71.1554872 C105.594297,70.5782564 104.467323,70.2406154 103.259528,70.2406154 C99.6919385,70.2406154 96.7996308,73.1329231 96.7996308,76.7001026 C96.7996308,80.2676923 99.6919385,83.16 103.259528,83.16 L126.421374,83.16 Z" id="Fill-39" fill="#BCE1E9"></path>
            <polygon id="Fill-41" fill="#77A8BA" points="295.580308 61.3210256 318.185026 61.3210256 318.185026 51.6836923 295.580308 51.6836923"></polygon>
            <polygon id="Fill-43" fill="#D6B88D" points="316.923077 322.471385 429.923282 322.471385 429.923282 82.288 316.923077 82.288"></polygon>
            <polygon id="Fill-44" fill="#A6D7CB" points="316.923077 322.573949 326.868103 322.573949 326.868103 82.288 316.923077 82.288"></polygon>
            <polygon id="Fill-45" fill="#D6B88D" points="441.289026 322.471385 521.508513 322.471385 521.508513 82.288 441.289026 82.288"></polygon>
            <path d="M521.508718,226.094277 L521.508718,322.471303 L405.235077,322.471303 L405.235077,250.236636 C405.235077,236.903303 416.044103,226.094277 429.377436,226.094277 L521.508718,226.094277 Z" id="Fill-46" fill="#184657"></path>
            <path d="M521.508718,10.9564308 L521.508718,72.4616615 L316.319795,72.4616615 L316.319795,57.6809436 C316.319795,31.8766359 337.24,10.9564308 363.043897,10.9564308 L521.508718,10.9564308 Z" id="Fill-47" fill="#E85F5B"></path>
            <polygon id="Fill-48" fill="#035E80" points="326.868103 322.573949 429.922872 322.573949 429.922872 82.288 326.868103 82.288"></polygon>
            <polygon id="Fill-49" fill="#035E80" points="459.641436 167.335385 503.787897 167.335385 503.787897 135.624615 459.641436 135.624615"></polygon>
            <polygon id="Fill-50" fill="#5995AB" points="441.289026 322.573949 521.508513 322.573949 521.508513 82.288 441.289026 82.288"></polygon>
            <polygon id="Fill-51" fill="#FFFFFF" opacity="0.200000003" points="521.508718 82.2877949 509.384 82.2877949 441.289231 230.946667 441.289231 322.573744 479.538256 322.573744 521.508718 230.946667"></polygon>
            <polygon id="Fill-52" fill="#A6D7CB" points="521.508718 72.4616615 521.508718 82.2877128 441.289231 82.2877128 441.289231 322.471097 429.923077 322.471097 429.923077 82.2877128 316.922872 82.2877128 316.423179 72.4616615"></polygon>
            <polygon id="Fill-53" fill="#EC7C79" points="359.844923 58.5234872 484.512821 58.5234872 484.512821 30.9111795 359.844923 30.9111795"></polygon>
            <path d="M286.474215,46.1251282 C281.172062,46.1251282 276.874215,50.4233846 276.874215,55.7251282 C276.874215,61.0268718 281.172062,65.3251282 286.474215,65.3251282 C291.776369,65.3251282 296.074215,61.0268718 296.074215,55.7251282 C296.074215,50.4233846 291.776369,46.1251282 286.474215,46.1251282 M304.505805,55.7251282 C304.505805,65.6836923 296.432779,73.7571282 286.474215,73.7571282 C276.515651,73.7571282 268.442626,65.6836923 268.442626,55.7251282 C268.442626,45.7665641 276.515651,37.6931282 286.474215,37.6931282 C296.432779,37.6931282 304.505805,45.7665641 304.505805,55.7251282" id="Fill-54" fill="#E85F5B"></path>
            <path d="M222.466215,56.8390974 C224.71401,55.6235077 226.242215,53.2468923 226.242215,50.5117128 C226.242215,46.5400205 223.022113,43.3207385 219.050831,43.3207385 C218.765292,43.3207385 218.483856,43.3392 218.206523,43.3716103 C218.133497,38.3796103 214.066626,34.3545846 209.057395,34.3545846 C206.758318,34.3545846 204.659036,35.2046359 203.051241,36.6044308 C201.595651,30.8046359 196.349292,26.5092513 190.098215,26.5092513 C182.722215,26.5092513 176.742728,32.4887385 176.742728,39.8647385 C176.742728,40.8267897 176.846523,41.7638154 177.039754,42.6676103 C175.258831,41.4315077 173.0976,40.7053538 170.765703,40.7053538 C164.679138,40.7053538 159.744985,45.6395077 159.744985,51.7260718 C159.744985,53.5718154 160.20119,55.3104821 161.003241,56.8390974 L222.466215,56.8390974 Z" id="Fill-55" fill="#BCE1E9"></path>
            <path d="M315.906544,174.278974 C315.906544,174.278974 316.891159,174.537846 318.601108,173.915897 C320.311056,173.294359 321.761723,172.88 323.575467,172.569026 C325.3888,172.258051 326.114544,172.88 324.715569,173.501538 C323.316595,174.123487 322.487467,174.382359 322.487467,174.382359 C322.487467,174.382359 323.886441,174.693333 326.373415,174.693333 C328.86039,174.693333 330.985108,174.019692 331.0368,174.900923 C331.088903,175.781333 329.534441,175.936821 329.534441,175.936821 C329.534441,175.936821 331.710441,175.936821 331.503262,176.610462 C331.296082,177.284103 328.083364,177.646769 328.083364,177.646769 C328.083364,177.646769 329.275159,177.906051 329.171364,178.734769 C329.067979,179.563897 326.217928,179.149538 326.217928,179.149538 C326.217928,179.149538 327.669005,179.097436 327.56521,179.874872 C327.461415,180.651897 325.751467,180.807385 322.331979,180.807385 C318.912082,180.807385 315.751056,180.340923 315.751056,180.340923 L315.647672,174.278974 L315.906544,174.278974 Z" id="Fill-56" fill="#FFC9BC"></path>
            <path d="M317.318769,174.258954 C316.410462,174.409108 315.906667,174.279056 315.906667,174.279056 L315.647795,174.279056 L315.751179,180.341005 C315.751179,180.341005 316.914667,180.512492 318.592205,180.647467 L317.318769,174.258954 Z" id="Fill-57" fill="#DAADA0"></path>
            <path d="M254.868062,148.578256 C254.868062,148.578256 246.836882,146.505641 243.10601,148.526564 C239.375138,150.547487 229.737395,183.502154 231.291856,193.605949 C232.846318,203.710154 247.303344,198.424821 247.303344,198.424821 L254.868062,148.578256 Z" id="Fill-58" fill="#4286A0"></path>
            <path d="M265.956595,313.817846 C265.8528,316.253538 265.075774,318.118154 265.075774,318.118154 C265.075774,318.118154 277.096697,317.082256 276.889518,317.133949 C276.682749,317.185641 275.179569,315.009641 275.283364,313.973333 L265.956595,313.817846 Z" id="Fill-59" fill="#FFC9BC"></path>
            <path d="M264.865272,317.945641 C264.865272,317.945641 263.74199,321.203077 264.303631,322.101949 C264.865272,323.00041 265.988554,322.77559 272.840246,322.77559 C279.692759,322.77559 287.218503,323.562051 287.555733,322.326769 C287.892554,321.091077 285.64599,320.754256 282.275733,319.742974 C278.906297,318.732103 276.889887,317.133744 276.889887,317.133744 L264.865272,317.945641 Z" id="Fill-60" fill="#FAF8DC"></path>
            <path d="M287.238236,321.451241 C285.954133,322.321805 279.056082,321.652677 272.728287,321.652677 C265.876185,321.652677 264.752903,321.877087 264.191262,320.978626 C264.181826,320.963446 264.176492,320.942523 264.168287,320.926113 C264.123979,321.418831 264.147774,321.852472 264.303672,322.101908 C264.865313,323.000369 265.988595,322.775959 272.840287,322.775959 C279.69239,322.775959 287.218544,323.562421 287.555364,322.326728 C287.651774,321.973087 287.530749,321.694523 287.238236,321.451241" id="Fill-61" fill="#184657"></path>
            <polygon id="Fill-62" fill="#FFC9BC" points="226.369682 310.190851 223.778913 315.320697 234.815631 316.304903 235.333785 313.506954"></polygon>
            <path d="M223.752697,314.928 C223.752697,314.928 222.017723,317.772718 222.448492,318.740923 C222.879672,319.708718 224.184287,318.918564 230.62039,321.268103 C235.928287,323.205744 245.176287,323.010872 245.784697,322.026256 C246.967877,320.112821 243.673928,320.884923 240.477621,319.414974 C237.281313,317.945026 235.385518,316.201436 235.385518,316.201436 L223.752697,314.928 Z" id="Fill-63" fill="#FAF8DC"></path>
            <path d="M245.821169,320.950031 C244.360656,321.790236 235.851528,321.86039 230.845169,320.032697 C224.408656,317.682749 223.104451,318.473313 222.673272,317.505518 C222.642503,317.436595 222.625682,317.355774 222.615426,317.270031 C222.410708,317.853826 222.300759,318.408492 222.448451,318.7408 C222.879631,319.709005 224.184246,318.918441 230.620349,321.267979 C235.928246,323.205621 245.176246,323.010749 245.784656,322.026133 C246.114092,321.493621 246.087015,321.1728 245.821169,320.950031" id="Fill-64" fill="#184657"></path>
            <path d="M242.950605,206.197251 C240.774195,216.145559 242.328656,243.504328 240.152656,259.048944 C237.976246,274.593559 224.970708,311.175303 224.970708,311.175303 C226.964554,312.161969 233.330092,314.522995 236.162913,314.750687 C236.162913,314.750687 250.101374,283.29879 255.386297,267.44279 C260.671221,251.58761 264.091118,230.446687 264.091118,230.446687 C264.091118,230.446687 268.132964,264.023303 267.511015,277.702482 C266.889477,291.381662 265.024041,314.388021 265.024041,314.388021 C267.581579,315.004636 274.336862,315.318072 276.838195,314.698995 C276.838195,314.698995 282.744656,282.987815 283.988144,256.250995 C285.232041,229.514174 280.879221,205.886277 280.879221,205.886277 L257.873272,200.600944 L242.950605,206.197251 Z" id="Fill-65" fill="#184657"></path>
            <path d="M272.692595,150.132759 C278.081723,155.210913 287.304697,168.993887 295.284185,170.962297 C303.264082,172.931528 316.632287,173.449682 316.632287,173.449682 L316.942851,180.600451 C316.942851,180.600451 305.440082,182.672656 292.900595,179.771323 C280.361108,176.869579 273.003569,171.791836 273.003569,171.791836 L272.692595,150.132759 Z" id="Fill-66" fill="#FAF8DC"></path>
            <path d="M282.652923,176.604308 C283.008615,174.136205 283.669949,168.680615 283.644103,162.388513 C279.425436,157.885538 275.52841,152.804513 272.692718,150.132923 L272.940923,167.417026 L274.400205,172.660103 C275.950564,173.570051 278.758359,175.076103 282.652923,176.604308" id="Fill-67" fill="#EBE9C9"></path>
            <path d="M281.681354,210.969682 C281.621456,210.54999 281.564021,210.155733 281.508636,209.783631 L267.8672,214.100759 L268.44361,210.239015 L252.464123,202.629579 L242.950687,206.197169 C242.7312,207.200656 242.549867,208.384246 242.398482,209.712656 C243.717867,209.090297 245.457354,208.536451 247.303097,208.684554 C251.189456,208.995528 256.784944,216.611938 260.204841,218.477374 C262.048533,219.482913 263.845046,220.036349 265.111097,220.332964 C264.935097,223.358195 264.625764,227.164144 264.0912,230.447015 C264.0912,230.447015 264.401764,233.025477 264.836636,237.040656 L269.687508,219.2544 L273.417969,217.855426 C277.148841,216.456451 281.656328,212.104041 281.656328,212.104041 L281.681354,210.969682 Z" id="Fill-68" fill="#113644"></path>
            <path d="M270.535549,148.190031 C269.731856,147.609928 269.551344,147.152492 269.414318,145.9648 C269.111138,143.332595 271.484062,129.844185 271.484062,129.844185 L260.333292,128.593723 C260.333292,128.593723 258.21719,141.934851 257.589908,144.1248 C257.394626,144.807467 256.576164,145.765826 255.674421,146.753723 C260.1056,152.101415 268.403856,150.766441 270.535549,148.190031" id="Fill-69" fill="#FFC9BC"></path>
            <path d="M268.755897,138.696041 C269.228103,138.759631 269.677744,138.781374 270.106462,138.766195 C270.773949,134.151221 271.483692,129.844349 271.483692,129.844349 L263.509949,128.915118 C263.19241,133.966195 264.993846,138.234092 268.755897,138.696041" id="Fill-72" fill="#E8BFB4"></path>
            <g id="Fill-83" transform="translate(261.557659, 116.304750)">
                <mask id="mask-8" fill="white">
                    <use xlink:href="#path-7"></use>
                </mask>
                <use id="蒙版" fill="#FFDBD1" xlink:href="#path-7"></use>
                <path d="M14.1917975,13.6769522 C14.349336,13.6724394 14.5003103,13.6556189 14.6426693,13.6342855 C14.7210283,13.9325419 14.8039001,14.2697727 14.8826693,14.6320291 C14.6787719,14.6935676 14.4519001,14.7317214 14.2106693,14.7386958 C13.3257462,14.7637214 12.5959001,14.3674137 12.5811308,13.8533624 C12.5667719,13.3389009 13.3068744,13.7023881 14.1917975,13.6769522" fill="#ED6D53" mask="url(#mask-8)"></path>
            </g>
            <path d="M257.384903,117.963692 C256.239467,120.700513 254.221415,123.667077 259.982236,129.818872 L263.638851,128.449436 L260.729723,120.490872 L257.384903,117.963692 Z" id="Fill-74" fill="#383838"></path>
            <path d="M273.458626,124.365538 C273.467241,124.665436 273.230933,124.915692 272.931036,124.924308 C272.630728,124.932923 272.380882,124.696615 272.372267,124.396308 C272.363651,124.09641 272.599959,123.846154 272.900267,123.837949 C273.200164,123.828923 273.45001,124.065641 273.458626,124.365538" id="Fill-75" fill="#000000"></path>
            <path d="M265.07721,129.904779 C262.950851,129.965087 261.178133,128.290421 261.117826,126.164472 C261.056697,124.038113 262.731364,122.265805 264.857723,122.204677 L265.07721,129.904779 Z" id="Fill-76" fill="#FFD4C8"></path>
            <path d="M265.025108,128.083487 C263.904697,128.115487 262.970544,127.233026 262.938544,126.112615 C262.906544,124.992205 263.789005,124.057641 264.909826,124.026051 L265.025108,128.083487 Z" id="Fill-77" fill="#D9A496"></path>
            <path d="M275.277908,123.936451 L277.711959,126.995733 C278.0016,127.35799 277.810421,127.897887 277.357497,127.997579 L275.277908,128.451323 L275.277908,123.936451 Z" id="Fill-79" fill="#DCB0A4"></path>
            <path d="M264.940964,123.145969 L264.975426,126.173662 L266.042913,126.201969 C265.949374,125.458585 266.100349,123.625149 266.159426,123.022482 L264.940964,123.145969 Z" id="Fill-80" fill="#383838"></path>
            <path d="M270.82921,122.39959 C271.119262,122.283077 271.4208,122.209641 271.726851,122.161641 C272.033313,122.116513 272.343467,122.097231 272.656903,122.107487 C272.969108,122.119795 273.283364,122.157128 273.590646,122.242051 C273.744492,122.282256 273.896287,122.336 274.043569,122.399179 C274.117005,122.433641 274.18921,122.467692 274.259364,122.507897 L274.361928,122.569436 L274.409518,122.602256 L274.422646,122.614564 C274.422646,122.614564 274.433313,122.620308 274.423056,122.619077 C274.371774,122.593641 274.2528,122.665436 274.253621,122.71959 C274.288082,122.636718 274.382851,122.597333 274.465723,122.631795 C274.548595,122.666256 274.587979,122.761436 274.553518,122.844308 C274.545313,122.898462 274.416492,122.971077 274.356185,122.945231 L274.289723,122.936205 L273.483159,122.860308 C273.200082,122.841026 272.916595,122.823795 272.630236,122.816821 L271.763364,122.784 C271.470851,122.774154 271.176697,122.763077 270.872287,122.721641 C270.7808,122.709333 270.713108,122.62441 270.725415,122.532513 C270.734031,122.470974 270.775056,122.421333 270.82921,122.39959" id="Fill-81" fill="#383838"></path>
            <path d="M276.760287,113.162421 C275.653415,112.083446 273.522544,112.7776 272.387364,113.266626 C272.067774,113.107446 271.716595,112.960164 271.330954,112.826831 C267.742031,111.586215 264.674954,111.902523 261.90121,113.079959 C259.463877,114.114626 258.754133,115.131651 257.536903,116.997087 C256.580595,118.462113 256.042338,120.261087 257.122133,122.567138 C258.974031,126.52201 264.317621,124.479754 265.778133,123.786421 C267.726031,122.862933 268.527672,120.478933 269.153723,117.499241 C269.153723,117.499241 270.846851,116.716472 274.383262,118.555651 C276.371774,117.670318 278.314749,114.677908 276.760287,113.162421" id="Fill-84" fill="#383838"></path>
            <path d="M257.590031,144.124759 C253.210133,148.371323 248.235774,153.759631 246.162749,167.750195 C244.090544,181.740349 241.914133,208.580554 241.914133,208.580554 C241.914133,208.580554 247.199467,206.508349 252.173826,209.617272 C257.148185,212.725785 262.329723,217.389169 270.827364,216.145682 C279.325005,214.902195 281.708595,209.720656 281.708595,209.720656 C281.708595,209.720656 280.568492,193.243528 281.086646,181.740349 C281.6048,170.237169 276.979979,153.501169 269.706544,146.428349 L267.821826,148.578092 C267.821826,148.578092 264.505723,147.853169 262.018749,146.609682 C259.531364,145.365785 257.590031,144.124759 257.590031,144.124759" id="Fill-85" fill="#FAF8DC"></path>
            <path d="M257.590031,144.124759 C256.817108,144.873887 256.025723,145.660349 255.235569,146.521887 C255.54121,146.863221 256.7568,148.149785 259.272492,150.003323 C262.225928,152.179733 264.479877,152.956759 264.479877,152.956759 L267.821826,148.578092 C267.821826,148.578092 264.505723,147.853169 262.018749,146.609682 C259.531364,145.365785 257.590031,144.124759 257.590031,144.124759" id="Fill-86" fill="#FCFAE9"></path>
            <path d="M269.706626,146.428431 L267.821908,148.578174 L270.853292,151.091405 C270.853292,151.091405 271.813292,150.473559 272.251856,149.432328 C271.445703,148.305354 270.596472,147.293251 269.706626,146.428431" id="Fill-87" fill="#FCFAE9"></path>
            <path d="M281.08681,181.740144 C281.206195,179.093579 281.049887,176.168862 280.65481,173.149785 C278.727836,171.537067 275.047015,168.269374 272.900144,165.159221 C269.894605,160.80681 266.371323,155.210913 262.432862,155.314297 C258.495221,155.418092 251.96681,161.532144 251.96681,161.532144 C251.759221,166.817477 254.453374,177.491528 264.505887,187.854195 C271.817477,195.392246 278.248656,198.925785 281.213579,200.293169 C280.987938,194.696451 280.823426,187.578092 281.08681,181.740144" id="Fill-88" fill="#EBE9C9"></path>
            <path d="M305.232656,190.807836 C307.512862,191.688656 310.51799,193.657887 312.072451,194.123938 C313.626913,194.5904 318.445785,195.056451 322.021169,196.870195 C325.596144,198.683938 325.181785,199.046605 325.181785,199.046605 C325.181785,199.046605 322.539323,200.860349 318.808451,201.585682 C315.077579,202.311015 312.124144,200.2384 310.103221,199.927426 C308.082297,199.616862 303.211733,198.631836 303.211733,198.631836 L305.232656,190.807836 Z" id="Fill-89" fill="#FFC9BC"></path>
            <path d="M250.101251,151.272574 C256.007713,150.443446 263.054687,151.065395 266.578379,155.314421 C270.102072,159.563036 270.205456,162.050421 270.205456,162.050421 C270.205456,162.050421 265.764431,155.692677 260.886072,154.311754 C256.007713,152.930831 247.614277,155.624985 247.614277,155.624985 L250.101251,151.272574 Z" id="Fill-90" fill="#4286A0"></path>
            <path d="M262.744246,179.045826 C262.744246,179.045826 258.184246,185.678031 252.380759,187.647262 C246.577682,189.616492 241.396144,190.134236 241.396144,190.134236 L240.981374,194.487056 C240.981374,194.487056 248.753682,193.657928 256.422605,190.030441 C264.091118,186.403774 266.267528,180.393108 266.267528,180.393108 L262.744246,179.045826 Z" id="Fill-91" fill="#4286A0"></path>
            <path d="M303.211815,198.631959 C303.211815,198.631959 305.069046,199.007344 306.965662,199.367959 C307.562174,197.207138 306.943918,194.434215 306.310892,191.275241 C305.940021,191.101703 305.577764,190.941292 305.232738,190.807959 L303.211815,198.631959 Z" id="Fill-92" fill="#DAADA0"></path>
            <path d="M260.886113,154.311836 C268.056985,154.791836 275.876882,174.283938 284.936164,179.913887 C293.995446,185.544656 305.750933,190.324964 305.750933,190.324964 C306.032369,192.765169 305.302523,198.197374 303.486318,199.461374 C303.486318,199.461374 293.348472,197.549169 277.494523,189.2624 C261.641395,180.976451 256.840164,173.264862 254.630933,170.459118 C250.532882,165.254195 249.77801,153.568451 260.886113,154.311836" id="Fill-93" fill="#FBF9E2"></path>
            <path d="M399.317169,291.627528 C398.248041,292.410708 396.858092,293.15081 395.079631,293.660759 C392.685785,294.344656 390.291938,294.325785 388.305067,294.064451 C384.188964,283.796144 378.885169,271.332144 376.634503,262.779938 C372.490092,247.026913 370.003118,222.155118 370.003118,222.155118 C370.003118,222.155118 362.125374,250.552246 361.919836,274.180144 C361.851733,282.076759 361.549785,289.948759 361.180144,296.931323 C358.266503,297.391631 354.548759,297.714913 350.895836,297.29481 C349.288451,286.317579 347.139938,271.705067 346.788759,260.084144 C346.16681,239.565579 350.727631,209.097887 353.420144,201.223015 C353.420144,201.223015 383.474297,191.895836 387.515323,199.357579 C391.557169,206.818913 390.727221,226.507938 391.348759,241.225477 C391.970708,255.940144 394.457682,265.266913 397.566605,281.433067 C398.204144,284.7504 398.792041,288.217067 399.317169,291.627528" id="Fill-94" fill="#E85F5B"></path>
            <path d="M361.180144,296.9312 C360.442913,310.843815 359.432451,321.227815 359.432451,321.227815 L357.772554,321.227815 L357.46199,317.288533 C357.46199,317.288533 348.654195,322.573867 345.131733,322.573867 C344.223836,322.573867 343.459118,322.561559 342.824862,322.539405 C342.088041,322.517662 341.857887,321.532226 342.504862,321.180636 C345.7504,319.412021 351.855836,315.056328 352.593067,313.144533 C353.040656,311.975303 352.127015,305.701662 350.895836,297.295097 C354.548759,297.71479 358.266503,297.391508 361.180144,296.9312" id="Fill-95" fill="#FFC9BC"></path>
            <path d="M402.541128,317.288574 L401.092513,317.705395 L400.470564,313.144164 C400.470564,313.144164 399.95159,312.522626 396.842256,316.461497 C393.733333,320.397497 388.861949,321.435446 386.790974,321.227856 C384.717949,321.019446 385.547487,319.775549 385.547487,319.775549 C385.547487,319.775549 391.970462,315.839959 393.630769,311.692267 C394.389333,309.798933 391.768615,302.710933 388.305231,294.064779 C390.292103,294.325703 392.685949,294.344574 395.079795,293.660677 C396.857846,293.150728 398.247795,292.410626 399.317333,291.627446 C401.362872,304.8496 402.541128,317.288574 402.541128,317.288574" id="Fill-96" fill="#FFC9BC"></path>
            <path d="M412.660144,150.105928 C416.823426,148.213826 417.221374,143.841723 415.267733,141.366646 C413.314913,138.891569 413.384656,137.544287 409.769477,134.361928 C406.155118,131.179569 404.471015,131.603774 400.619118,130.527262 C396.767631,129.451159 396.330297,127.310851 393.8704,124.042338 C391.410503,120.773826 388.941579,119.093415 384.692964,118.270441 C380.444349,117.447877 379.147938,118.368903 374.861169,116.174441 C370.5744,113.979979 371.540964,111.291569 366.874297,110.211364 C361.282503,108.916595 358.697067,113.563159 358.500144,118.063262 C358.303631,122.562954 366.513272,132.210133 366.513272,132.210133 C366.513272,132.210133 367.64599,133.255056 370.43081,136.594544 C373.215631,139.934851 374.877169,140.642133 379.906092,140.501005 C384.935015,140.359877 387.296451,142.016082 389.260759,143.926236 C391.225067,145.835569 394.667528,146.707774 397.746092,146.137108 C400.825477,145.566441 403.028554,146.392697 405.558195,148.313518 C408.088246,150.233928 411.145477,150.794338 412.660144,150.105928" id="Fill-97" fill="#360C03"></path>
            <path d="M361.924964,120.947241 L371.471631,125.947856 C376.454605,127.302113 377.986092,125.765292 380.300759,128.405703 C382.615426,131.045292 384.911631,133.766523 387.331323,134.38519 C389.750605,135.003856 393.574605,133.887138 396.501785,136.06601 C399.429374,138.244472 400.002913,141.437497 403.109785,142.804062 C406.216246,144.170215 407.812144,143.499856 410.054605,146.464779 C410.949374,147.646728 411.32681,149.080574 411.458092,150.377395 C409.825682,150.4816 407.531938,149.811241 405.558195,148.313395 C403.028554,146.392574 400.825477,145.566318 397.746092,146.136985 C394.667528,146.707651 391.225067,145.835446 389.260759,143.926113 C387.296451,142.015959 384.935426,140.359754 379.906092,140.500882 C374.877169,140.64201 373.215631,139.934728 370.43081,136.594831 C367.64599,133.254933 366.513272,132.21001 366.513272,132.21001 C366.513272,132.21001 363.013785,128.0976 360.63881,123.990113 L361.924964,120.947241 Z" id="Fill-98" fill="#270A04"></path>
            <path d="M365.352041,125.985723 C365.470195,127.975056 367.178503,129.491364 369.167426,129.37321 C371.156349,129.255056 372.673067,127.546749 372.554913,125.557826 C372.436759,123.568903 370.728041,122.052185 368.739528,122.170338 C366.750605,122.288492 365.233887,123.9968 365.352041,125.985723" id="Fill-99" fill="#FFD4C8"></path>
            <path d="M367.055549,125.884759 C367.117908,126.932964 368.01801,127.731733 369.066215,127.669785 C370.114421,127.607426 370.91319,126.707323 370.851241,125.659118 C370.788882,124.611323 369.888779,123.811733 368.840985,123.874092 C367.792779,123.936451 366.9936,124.836144 367.055549,125.884759" id="Fill-100" fill="#DCB0A4"></path>
            <path d="M363.725415,157.439262 C360.125005,157.887262 356.891774,158.725826 354.987364,159.286236 C354.409313,157.509826 354.378954,155.726031 354.219774,153.846646 C354.130749,152.800082 355.021826,151.381005 355.672082,150.085415 C356.359672,148.715979 357.47721,147.588595 358.894646,147.007672 C359.702851,146.677005 360.144697,146.343056 360.263672,145.077826 C360.496287,142.606851 360.331774,129.414236 360.331774,129.414236 L370.749826,128.025928 C370.749826,128.025928 370.671467,141.08521 371.30121,143.123774 C371.877621,144.98921 375.129723,145.559877 379.164185,146.727056 C377.420595,149.904492 377.347979,154.197005 378.214851,157.723159 C373.590031,155.1968 368.307159,156.868595 363.725415,157.439262" id="Fill-101" fill="#FFC9BC"></path>
            <path d="M364.838031,136.937641 C363.923979,137.264205 361.234749,137.690051 360.393723,137.493128 C360.286236,133.358154 360.331774,129.414359 360.331774,129.414359 L368.8048,128.297231 C369.121108,132.453538 367.529313,135.975179 364.838031,136.937641" id="Fill-104" fill="#E8BFB4"></path>
            <path d="M355.352821,126.261744 C355.707282,131.452718 357.941949,135.573333 362.333744,135.340718 C366.072,135.142154 369.066462,130.785231 368.980718,125.586462 C368.894974,120.395487 366.702154,116.336821 361.504205,116.501333 C353.978051,116.739692 354.995897,121.037128 355.352821,126.261744" id="Fill-105" fill="#FFDBD1"></path>
            <path d="M364.5856,122.341908 C364.10519,122.129395 363.572267,122.038728 363.046318,122.038318 C362.519549,122.048164 361.991959,122.127754 361.505805,122.342728 C361.478318,122.355036 361.46601,122.387446 361.477908,122.415344 C361.488574,122.439138 361.514831,122.452267 361.539446,122.446933 L361.543959,122.446113 C362.038728,122.343138 362.544164,122.273805 363.047549,122.278318 C363.299446,122.270113 363.551344,122.288574 363.80119,122.317292 C364.052677,122.341087 364.299241,122.396472 364.550318,122.446113 C364.580267,122.452267 364.611446,122.432985 364.61719,122.403036 C364.622523,122.37719 364.608574,122.352164 364.5856,122.341908" id="Fill-106" fill="#C3B9DD"></path>
            <path d="M358.263097,122.694441 C357.762995,122.53321 357.223508,122.498749 356.700021,122.553723 C356.177354,122.618544 355.660841,122.753108 355.200533,123.018133 C355.174277,123.033313 355.164841,123.066954 355.180021,123.09321 C355.193559,123.116185 355.220636,123.126031 355.244841,123.118236 L355.248533,123.116595 C355.730174,122.962338 356.225764,122.840492 356.726687,122.792082 C356.976123,122.758031 357.228431,122.749826 357.480328,122.752697 C357.733046,122.749415 357.983713,122.778544 358.238482,122.801928 C358.269251,122.80439 358.298379,122.782236 358.301251,122.751877 C358.303303,122.725621 358.287303,122.702236 358.263097,122.694441" id="Fill-107" fill="#C3B9DD"></path>
            <path d="M362.784738,124.292595 C362.800738,124.560492 363.031303,124.76521 363.2992,124.74921 C363.567508,124.73321 363.771815,124.503056 363.755815,124.234749 C363.740226,123.966441 363.510072,123.762133 363.241354,123.778133 C362.973456,123.793723 362.768738,124.024287 362.784738,124.292595" id="Fill-108" fill="#000000"></path>
            <path d="M355.844431,124.674831 C355.860431,124.942728 356.090995,125.147446 356.358892,125.131446 C356.6272,125.115446 356.831508,124.885292 356.815508,124.616985 C356.799918,124.348677 356.569764,124.144369 356.301046,124.159959 C356.033149,124.175959 355.828431,124.406523 355.844431,124.674831" id="Fill-109" fill="#000000"></path>
            <path d="M357.911754,119.873928 C357.040779,120.563569 355.844882,121.143672 355.156882,121.398441 C355.575754,116.058544 359.234421,116.231262 359.234421,116.231262 L365.837908,117.159672 L372.523856,123.889928 L372.615754,125.905108 C365.42601,127.230646 363.728779,117.519056 359.993395,116.915159 C359.732062,117.452595 359.677497,118.477005 357.911754,119.873928" id="Fill-112" fill="#270A04"></path>
            <path d="M357.503877,129.291815 C357.544082,129.97161 358.525005,130.465969 359.695056,130.396636 C360.864697,130.326892 361.78039,129.719713 361.739774,129.040328 C361.699569,128.360533 360.765826,128.925456 359.596595,128.99479 C358.426544,129.064533 357.463262,128.612431 357.503877,129.291815" id="Fill-113" fill="#ED6D53"></path>
            <path d="M369.354462,128.356718 C369.364308,128.524513 369.508718,128.652923 369.676923,128.642667 C369.845128,128.632821 369.973538,128.48841 369.963282,128.320205 C369.953436,128.152 369.809026,128.02359 369.640821,128.033846 C369.472615,128.043692 369.344615,128.188513 369.354462,128.356718" id="Fill-114" fill="#FFFFFF"></path>
            <path d="M361.772308,126.377559 C362.502154,125.008533 363.200821,123.632944 363.798154,122.186379 L361.728,122.288533 C360.908308,122.328738 360.270769,123.032738 360.310974,123.852021 L360.365949,124.968328 C360.403692,125.735097 361.022769,126.334482 361.772308,126.377559 M364.60759,126.253662 L364.852513,126.241764 C365.671795,126.201149 366.309744,125.497559 366.269128,124.677867 L366.214154,123.561559 C366.205128,123.375303 366.157538,123.200533 366.086564,123.038482 C365.643487,124.143713 365.142564,125.207097 364.60759,126.253662 M358.171897,122.684021 C357.384615,124.014482 356.628103,125.363405 355.828513,126.685662 L357.595487,126.598687 C358.415179,126.558482 359.052718,125.855303 359.012513,125.03561 L358.957949,123.918892 C358.930872,123.379815 358.615795,122.924841 358.171897,122.684021 M353.346872,126.048533 C353.211897,125.837662 353.122462,125.593149 353.109333,125.326072 L353.054359,124.209354 C353.013744,123.389662 353.651692,122.686072 354.471385,122.645456 L355.380513,122.600738 C354.710974,123.7552 354.048,124.913764 353.346872,126.048533" id="Fill-115" fill="#FFFFFF"></path>
            <path d="M357.467815,122.852718 C357.448944,122.852718 357.430072,122.853128 357.4112,122.854359 L354.488533,122.997949 C353.861251,123.029128 353.375508,123.564513 353.406687,124.191795 L353.461662,125.308103 C353.476431,125.610872 353.609354,125.890256 353.835405,126.094974 C354.061867,126.300103 354.3552,126.405949 354.655508,126.390359 L357.578585,126.246359 C358.205867,126.21559 358.69079,125.680205 358.660021,125.052513 L358.605046,123.936205 C358.575097,123.327385 358.070892,122.852718 357.467815,122.852718 M354.598072,127.097641 C354.141046,127.097641 353.704944,126.929436 353.361969,126.618462 C352.996021,126.286564 352.781046,125.834051 352.757251,125.342974 L352.701867,124.226667 C352.651815,123.210462 353.437867,122.343179 354.453662,122.293128 L357.376328,122.149128 C358.390482,122.100718 359.259815,122.885128 359.309867,123.901333 L359.364841,125.017641 C359.414892,126.033846 358.628841,126.901128 357.613046,126.951179 C357.613046,126.951179 354.628841,127.097641 354.598072,127.097641" id="Fill-116" fill="#0D232B"></path>
            <path d="M364.684964,122.512574 C364.666092,122.512574 364.647631,122.512985 364.628349,122.513805 L361.705682,122.657805 C361.0784,122.688574 360.593067,123.223959 360.624246,123.851651 L360.67881,124.967959 C360.70999,125.595651 361.243323,126.083856 361.873067,126.049805 L364.795733,125.905805 C365.098092,125.891036 365.377067,125.758113 365.582605,125.532062 C365.787733,125.30601 365.891938,125.014728 365.877169,124.712369 L365.822195,123.595651 C365.807426,123.293292 365.674503,123.014318 365.448041,122.80919 C365.236349,122.616779 364.96681,122.512574 364.684964,122.512574 M361.815631,126.757087 C360.839631,126.757087 360.02281,125.988267 359.9744,125.002831 L359.919426,123.886113 C359.869374,122.869908 360.655426,122.003036 361.67081,121.952985 L364.593887,121.808985 C365.089067,121.7856 365.555938,121.954626 365.922297,122.285703 C366.288246,122.6176 366.503221,123.070523 366.527015,123.56119 L366.58199,124.677497 C366.606605,125.168164 366.437169,125.639959 366.105272,126.005908 C365.773374,126.371856 365.320862,126.586831 364.830195,126.611036 C364.830195,126.611036 361.84599,126.757087 361.815631,126.757087" id="Fill-117" fill="#0D232B"></path>
            <path d="M369.743056,123.938831 C369.743056,123.938831 368.815877,124.010626 368.568903,123.802215 C368.557005,123.68119 367.155159,123.910113 366.430236,124.332267 L366.074954,123.722626 C366.427774,123.517087 367.55721,123.008779 368.325621,123.074831 C368.513518,123.091241 369.009518,123.104369 369.074749,123.271344 C369.267569,123.766933 369.749621,123.863754 369.743056,123.938831" id="Fill-118" fill="#0D232B"></path>
            <polygon id="Fill-119" fill="#0D232B" points="359.053949 124.689641 359.019077 123.98441 360.259282 123.923692 360.293744 124.628513"></polygon>
            <path d="M359.434174,124.680821 L358.299815,127.152205 C358.165662,127.444308 358.384738,127.776205 358.70679,127.766769 L360.172226,127.725333 L359.434174,124.680821 Z" id="Fill-120" fill="#DCB0A4"></path>
            <path d="M366.962626,115.495344 C366.962626,115.495344 365.800779,113.933908 361.44919,113.259856 C357.763446,112.68919 355.498831,113.578626 354.389497,115.812062 C353.614523,117.372267 354.598318,118.992779 355.475446,120.098831 C356.961395,119.771446 357.651446,118.842215 359.885292,116.581292 C360.421908,116.67319 361.595651,116.843036 362.493292,117.183138 C364.574113,117.971241 366.431754,125.8896 373.548882,124.5776 L366.962626,115.495344 Z" id="Fill-121" fill="#360C03"></path>
            <path d="M389.168533,204.070646 C388.080533,199.426544 387.152533,197.953723 384.265149,197.087262 C375.469662,194.450544 353.4512,201.217723 353.420021,201.223056 C353.0352,202.3488 352.612226,203.938544 352.1712,205.892595 C360.364431,207.648082 362.862892,203.221005 364.095303,203.088082 C364.095303,203.088082 365.971405,206.917005 370.364841,207.233723 C373.798687,207.481108 378.581046,205.204185 382.230687,204.331979 L382.360328,218.032082 C382.89079,222.456697 388.681559,220.010749 390.822687,220.113313 C390.597456,214.031672 390.167508,208.354133 389.168533,204.070646" id="Fill-122" fill="#000000" opacity="0.236118862"></path>
            <path d="M361.400533,156.221292 C363.965456,156.609805 370.33879,156.065805 370.33879,156.065805 L368.473354,166.325087 L361.245046,166.402626 L361.400533,156.221292 Z" id="Fill-123" fill="#EB7470"></path>
            <path d="M374.346421,145.172021 C374.346421,145.172021 373.836472,159.718892 365.131241,165.85879 C365.131241,165.85879 358.214318,158.630892 359.224779,146.350277 C359.224779,146.350277 350.131036,150.54761 347.021703,157.775918 C344.533497,163.560533 341.503344,174.175097 335.285497,180.859405 C334.359138,181.854277 333.414318,182.836841 332.469087,183.794379 L338.509703,189.834995 C339.859036,188.491815 341.232985,187.002585 342.591754,185.367713 C350.98601,175.263508 353.16201,171.221662 353.16201,171.221662 C353.16201,171.221662 354.094933,174.641559 356.581908,177.128944 C359.069292,179.615918 357.359344,186.455713 355.338421,192.984123 C353.317497,199.512944 352.307036,201.844841 352.307036,201.844841 C352.307036,201.844841 356.348882,203.710277 359.457805,203.710277 C361.711344,203.710277 364.198728,201.844841 364.198728,201.844841 C364.198728,201.844841 365.840574,204.715405 369.872574,205.031303 C377.800369,205.653251 389.380677,200.600944 389.380677,200.600944 C389.380677,200.600944 385.339651,190.808123 383.940677,181.636841 C382.541703,172.465149 385.650626,166.091815 385.650626,166.091815 C385.650626,166.091815 389.082831,168.953764 392.155241,172.956226 C394.897805,170.999713 397.775344,169.222892 400.666421,167.4592 C393.678523,156.544328 382.812882,146.268636 374.346421,145.172021" id="Fill-124" fill="#184657"></path>
            <path d="M357.631303,147.127549 C358.084636,146.472369 359.077046,145.621087 359.719508,145.103754 C359.974687,144.897805 360.356226,145.050831 360.394379,145.376164 C360.606072,147.181292 361.239508,151.998933 362.41079,156.376779 C363.887713,161.895138 365.1312,165.858626 365.1312,165.858626 C365.1312,165.858626 368.240123,160.418215 370.028021,154.666831 C371.815508,148.915036 372.204021,144.407138 372.204021,144.407138 C372.204021,144.407138 372.359508,143.707651 373.058995,144.096164 C373.758892,144.485087 376.245867,145.495138 376.245867,145.495138 C376.245867,145.495138 375.577969,152.982728 373.253456,157.348267 C370.066995,163.333087 365.1312,165.858626 365.1312,165.858626 C365.1312,165.858626 361.167303,162.983138 359.224738,156.609805 C357.281354,150.236472 357.631303,147.127549 357.631303,147.127549" id="Fill-125" fill="#2D5666"></path>
            <path d="M338.509908,189.835077 C331.514626,196.811487 325.181908,199.979487 325.181908,199.979487 L320.207549,197.025641 C320.207549,197.025641 315.23319,199.668513 314.455754,198.891077 C313.678728,198.114051 315.854728,197.025641 318.963651,195.315692 C321.609805,193.860923 327.068677,189.253744 332.468882,183.794051 L338.509908,189.835077 Z" id="Fill-126" fill="#FFC9BC"></path>
            <path d="M383.940595,181.636759 C382.541621,172.465477 385.650544,166.091733 385.650544,166.091733 C381.919672,163.061169 379.510236,161.662195 379.510236,161.662195 C379.510236,161.662195 378.810749,174.019938 381.919672,180.47081 C382.7968,182.291528 383.680492,183.665477 384.496492,184.701374 C384.28521,183.681477 384.096082,182.655426 383.940595,181.636759" id="Fill-127" fill="#003549"></path>
            <path d="M346.944205,173.864328 C345.55959,177.97879 344.974974,180.874379 344.737026,182.751303 C351.363487,174.560123 353.162051,171.221867 353.162051,171.221867 C352.15159,168.268021 355.182974,159.408123 355.182974,159.408123 C355.182974,159.408123 349.742154,165.548021 346.944205,173.864328" id="Fill-128" fill="#003549"></path>
            <path d="M365.131282,165.858708 C364.198769,169.978092 364.587282,172.776041 365.442256,176.6624 C366.297231,180.548759 364.198769,201.844759 364.198769,201.844759 C364.430154,202.404349 365.541538,203.424656 365.999385,203.710195 C365.999385,203.710195 367.540718,186.766605 367.074256,182.258708 C366.608205,177.7504 365.364308,175.496451 365.131282,173.009477 C364.898256,170.522092 365.131282,165.858708 365.131282,165.858708" id="Fill-129" fill="#003549"></path>
            <path d="M360.053579,261.639959 C360.814195,266.066215 361.436144,269.700677 361.944041,272.679959 C362.455221,249.367959 370.003118,222.155241 370.003118,222.155241 C368.862195,215.316677 367.514913,209.202626 367.514913,209.202626 C367.514913,209.202626 356.633682,241.742523 360.053579,261.639959" id="Fill-130" fill="#CB4744"></path>
            <path d="M419.409313,213.408779 L388.265518,217.142933 C386.580185,217.344779 385.049928,216.142318 384.847672,214.456985 L382.470646,194.630933 C382.2688,192.9456 383.471262,191.415754 385.156595,191.213087 L416.3008,187.479344 C417.986133,187.277497 419.51639,188.479549 419.718236,190.165292 L422.095262,209.990933 C422.297518,211.676267 421.094646,213.206523 419.409313,213.408779" id="Fill-131" fill="#FDD482"></path>
            <path d="M418.942974,214.186051 L387.799179,217.920205 C386.113846,218.122051 384.58359,216.91959 384.381333,215.234256 L382.004308,195.408205 C381.802462,193.722872 383.004923,192.193026 384.690667,191.990359 L415.834462,188.256615 C417.519795,188.054769 419.050051,189.256821 419.251897,190.942564 L421.628923,210.768205 C421.831179,212.453538 420.628308,213.983795 418.942974,214.186051" id="Fill-132" fill="#FCC14A"></path>
            <path d="M401.972226,212.104328 L403.630482,212.518687 L402.176944,189.172636 L394.681559,190.071508 C397.124226,195.304328 401.972226,212.104328 401.972226,212.104328" id="Fill-133" fill="#040404" opacity="0.159737723"></path>
            <path d="M400.666544,167.459282 C397.775467,169.222974 394.897518,170.999795 392.155364,172.955897 C393.320082,174.473846 394.433518,176.153846 395.288082,177.906051 C397.793928,183.044923 399.289313,186.163282 400.184492,191.494974 L408.746544,190.136205 C408.289518,186.411897 407.571159,182.693744 406.480287,179.305026 C405.270851,175.551179 403.228595,171.462154 400.666544,167.459282" id="Fill-134" fill="#184657"></path>
            <path d="M408.811979,215.524185 C408.501005,218.166236 404.459569,219.254646 402.749621,219.099159 C401.039672,218.943672 401.350646,216.301621 401.350646,216.301621 L399.174236,216.456697 C399.640697,214.746749 401.972185,212.104287 401.972185,212.104287 C401.972185,212.104287 401.505723,204.021005 400.728697,195.782236 C400.579364,194.187569 400.398851,192.776287 400.184697,191.495056 L408.746749,190.136287 C410.176492,201.7888 409.047877,213.521723 408.811979,215.524185" id="Fill-135" fill="#FFC9BC"></path>
            <path d="M356.529928,316.564226 C354.768287,317.807713 349.586749,320.191303 349.586749,320.191303 C349.586749,320.191303 348.911467,319.069251 347.565415,317.906174 C345.783262,319.207508 343.885415,320.428431 342.504492,321.180841 C341.857928,321.532021 342.088082,322.517867 342.824903,322.5392 C343.459159,322.561354 344.223877,322.573662 345.131774,322.573662 C348.654236,322.573662 357.461621,317.288738 357.461621,317.288738 L357.772595,321.22761 L359.432492,321.22761 C359.432492,321.22761 359.665518,318.833764 359.9888,314.812021 C359.075569,315.1632 357.639262,315.781456 356.529928,316.564226" id="Fill-136" fill="#0D232B"></path>
            <path d="M386.791138,321.227692 C388.862113,321.435692 393.733497,320.397744 396.842421,316.461744 C399.951344,312.522462 400.470728,313.14441 400.470728,313.14441 L401.092267,317.705231 L402.541292,317.28841 C402.541292,317.28841 402.273395,314.462974 401.772062,310.075282 C400.779241,310.174564 398.822318,312.442051 396.997908,314.737846 C394.90519,317.370462 391.971856,318.118769 391.971856,318.118769 L389.837703,316.537641 C387.701908,318.454359 385.547651,319.775795 385.547651,319.775795 C385.547651,319.775795 384.717703,321.019282 386.791138,321.227692" id="Fill-137" fill="#0D232B"></path>
            <path d="M409.257477,209.944451 C409.280041,209.540349 409.300554,209.119426 409.320656,208.682913 C407.768656,208.861785 404.787323,209.109169 401.764964,208.835938 C401.796144,209.294605 401.823221,209.713887 401.847426,210.088041 C402.804554,210.168451 403.751015,210.205374 404.646605,210.205374 C406.516554,210.205374 408.165785,210.066708 409.257477,209.944451" id="Fill-138" fill="#0D232B"></path>
            <path d="M172.439795,152.766974 C177.243897,156.064205 184.235077,153.38359 185.51959,152.183179 C187.830564,150.024 187.398564,151.717949 187.793641,148.87159 C183.584,144.517538 182.165744,143.851692 181.696,141.428718 C181.177026,138.751385 182.546462,124.721436 182.546462,124.721436 L171.003897,124.318974 C171.003897,124.318974 169.886359,138.177436 169.416205,140.474462 C169.131897,141.863179 166.527179,144.499077 165.493333,146.232 C167.181949,149.292513 169.564308,150.792821 172.439795,152.766974" id="Fill-139" fill="#FFC9BC"></path>
            <path d="M180.391713,134.832656 C180.881559,134.842913 181.343918,134.812964 181.781251,134.748144 C181.929764,129.951015 182.158277,125.449682 182.158277,125.449682 L173.895303,125.449682 C174.154585,130.652554 176.490174,134.794913 180.391713,134.832656" id="Fill-142" fill="#E8BFB4"></path>
            <path d="M166.846441,115.40439 C165.984903,118.334441 164.100185,121.646031 170.690954,127.286236 L174.433313,125.422851 L170.554749,117.611159 L166.846441,115.40439 Z" id="Fill-143" fill="#383838"></path>
            <path d="M186.80439,121.442462 C187.270031,124.771692 187.498954,129.000205 186.005621,131.071179 C185.016903,132.441846 183.431672,132.647795 179.92521,132.311795 C176.523364,131.985641 172.850338,129.033846 172.077415,123.500308 C171.304492,117.966769 172.065518,113.286974 178.041313,112.452103 C184.620185,111.532718 186.031467,115.908923 186.80439,121.442462" id="Fill-144" fill="#FFDBD1"></path>
            <path d="M184.015918,120.131938 C184.058585,120.43799 183.845662,120.720656 183.53961,120.763323 C183.233559,120.8064 182.950892,120.592656 182.908226,120.287015 C182.865149,119.980964 183.078892,119.697887 183.384533,119.655631 C183.690585,119.612554 183.973251,119.825887 184.015918,120.131938" id="Fill-145" fill="#000000"></path>
            <path d="M176.06921,126.748923 C173.901005,127.051692 171.897723,125.539897 171.594954,123.371282 C171.291364,121.202667 172.803979,119.199795 174.972185,118.896615 L176.06921,126.748923 Z" id="Fill-146" fill="#FFD4C8"></path>
            <path d="M175.809969,124.891569 C174.666995,125.051569 173.611405,124.254441 173.451815,123.111877 C173.291815,121.969313 174.088944,120.913723 175.231508,120.753723 L175.809969,124.891569 Z" id="Fill-147" fill="#D9A496"></path>
            <path d="M185.708636,119.903179 L188.561559,122.755282 C188.89879,123.092513 188.765046,123.667282 188.313354,123.820308 L186.253046,124.518564 L185.708636,119.903179 Z" id="Fill-149" fill="#DCB0A4"></path>
            <path d="M174.993482,119.650102 L175.5424,122.943221 L176.637374,122.851323 C176.457682,122.101374 176.404349,120.208451 176.396554,119.585272 L174.993482,119.650102 Z" id="Fill-150" fill="#383838"></path>
            <path d="M181.505386,105.890137 C175.058521,101.745208 167.07985,107.846262 167.045799,111.496313 C167.023645,113.904108 162.609641,116.638851 165.493333,120.753723 C166.711328,122.491807 168.788406,123.517653 170.914968,122.391356 C171.74926,121.949487 172.24209,120.025641 173.431383,119.585272 C174.620676,119.144903 175.608154,120.709976 176.093374,120.410297 C177.980554,119.244349 178.531118,116.714708 178.833477,113.595938 C178.833477,113.595938 180.476964,112.602708 184.303426,114.083733 C185.486195,112.755323 193.012501,107.582034 188.766348,105.890137 C185.948706,104.767265 184.727499,107.961753 181.505386,105.890137 Z" id="Fill-151" fill="#383838"></path>
            <path d="M181.558769,117.829867 C181.728205,117.735097 181.906256,117.657559 182.090872,117.601764 C182.275897,117.546379 182.465846,117.506174 182.659897,117.484021 C182.853128,117.463508 183.050872,117.458174 183.247795,117.482379 C183.346256,117.493456 183.444718,117.512738 183.541538,117.538585 C183.589538,117.553354 183.637128,117.569764 183.684308,117.587405 L183.753641,117.614892 L183.785641,117.630892 L183.795077,117.638277 C183.795077,117.638277 183.801641,117.638277 183.795077,117.638277 C183.761026,117.6272 183.694564,117.684226 183.699897,117.717456 C183.713846,117.662892 183.768821,117.630072 183.823385,117.64361 C183.877128,117.657559 183.909949,117.712533 183.89641,117.767097 C183.896,117.801149 183.823385,117.857354 183.78359,117.847097 L183.741744,117.847508 L183.705231,117.849149 L183.636718,117.849969 C183.592,117.8512 183.547282,117.854072 183.502564,117.857354 L183.237538,117.873354 C183.061128,117.887713 182.884718,117.902892 182.707487,117.923815 C182.351795,117.958277 181.994872,118.013251 181.614974,118.025149 C181.557128,118.026379 181.507487,117.981251 181.505436,117.923815 C181.504205,117.884021 181.525949,117.848328 181.558769,117.829867" id="Fill-152" fill="#383838"></path>
            <path d="M186.688985,125.706051 C186.847754,125.716308 187.002831,125.719179 187.150523,125.718769 C187.1616,125.894769 187.168574,126.092923 187.165703,126.305846 C186.947446,126.323897 186.711549,126.32759 186.467856,126.312 C185.574728,126.254154 184.933087,125.969436 185.034421,125.675692 C185.136164,125.381949 185.795856,125.648615 186.688985,125.706051" id="Fill-153" fill="#ED6D53"></path>
            <path d="M148.670974,304.905559 C147.635077,307.910687 146.064205,312.530995 144.862974,314.854277 C143.697026,317.108226 143.386051,319.102892 144.008,319.828226 C144.629538,320.553969 148.748513,320.450174 155.199795,322.237662 C160.094564,323.594379 164.449026,322.937149 164.449026,322.937149 C164.449026,322.937149 164.085949,320.735303 162.428103,320.527713 C160.769846,320.320533 156.339487,318.014892 155.199795,316.564226 C154.060103,315.113149 157.920205,306.693046 157.920205,306.693046 L148.670974,304.905559 Z" id="Fill-154" fill="#FFC9BC"></path>
            <path d="M164.449026,322.937231 C164.449026,322.937231 164.086359,320.735385 162.428103,320.527795 C160.979487,320.346872 157.415179,318.564308 155.777436,317.149333 C154.697641,317.792615 151.822564,319.250667 149.836923,317.885333 C148.104,316.693949 146.032615,315.390154 144.935179,314.708308 C144.910974,314.756308 144.886359,314.80841 144.862974,314.854359 C143.697026,317.108308 143.386051,319.102974 144.008,319.828308 C144.629538,320.553641 148.748513,320.450256 155.199795,322.237744 C160.094564,323.594462 164.449026,322.937231 164.449026,322.937231" id="Fill-155" fill="#184657"></path>
            <path d="M157.920164,306.693251 L148.670933,304.905764 C148.338626,305.870687 147.950113,307.002995 147.536985,308.171815 C149.317087,309.545354 154.147856,310.847918 156.048574,311.322174 C156.887549,308.946379 157.920164,306.693251 157.920164,306.693251" id="Fill-156" fill="#DAADA0"></path>
            <path d="M164.449026,322.937231 C164.449026,322.937231 164.378462,322.511385 164.158974,322.017026 C161.774564,322.094564 157.202667,322.174974 153.956308,320.994256 C150.630769,319.784821 148.254154,319.968205 143.695795,318.764513 C143.705231,319.227692 143.807385,319.594872 144.008,319.828308 C144.629538,320.553641 148.748513,320.450256 155.199795,322.237744 C160.094564,323.594462 164.449026,322.937231 164.449026,322.937231" id="Fill-157" fill="#ED6D53"></path>
            <path d="M184.423754,308.092267 C184.423754,311.823138 183.15401,321.434626 183.15401,321.434626 C183.15401,321.434626 183.050626,322.678523 184.812267,322.781908 C186.573908,322.885703 204.295344,322.781908 204.295344,322.781908 C204.295344,322.781908 204.502113,321.124062 203.258626,320.813087 C202.015138,320.502113 195.693908,319.051036 194.242831,317.082215 C192.791754,315.112985 193.931856,307.652062 193.931856,307.652062 L184.423754,308.092267 Z" id="Fill-158" fill="#FFC9BC"></path>
            <path d="M203.258708,320.813046 C202.06281,320.513969 196.17481,319.160944 194.433682,317.306585 C193.707938,318.223508 191.90199,320.277251 190.330708,320.216944 C188.528451,320.14761 185.922503,319.213867 183.504862,318.626379 C183.306297,320.284636 183.154092,321.434995 183.154092,321.434995 C183.154092,321.434995 183.050708,322.678072 184.812349,322.781867 C186.57399,322.885662 204.295015,322.781867 204.295015,322.781867 C204.295015,322.781867 204.502195,321.124021 203.258708,320.813046" id="Fill-159" fill="#184657"></path>
            <path d="M193.519138,312.251323 C193.589292,309.898503 193.931856,307.651938 193.931856,307.651938 L184.423754,308.092144 C184.423754,308.849887 184.370831,309.852554 184.287138,310.96599 C186.456574,311.469374 191.551549,312.08681 193.519138,312.251323" id="Fill-160" fill="#DAADA0"></path>
            <path d="M184.81239,322.781785 C186.574031,322.885579 204.295056,322.781785 204.295056,322.781785 C204.295056,322.781785 204.368492,322.177887 204.154749,321.630605 C202.205621,321.681887 195.61239,321.849272 192.584697,321.849272 C189.190646,321.849272 186.495672,321.708554 183.172595,321.295426 C183.161108,321.385272 183.154133,321.434913 183.154133,321.434913 C183.154133,321.434913 183.050749,322.67799 184.81239,322.781785" id="Fill-161" fill="#ED6D53"></path>
            <path d="M196.535138,205.250954 C198.692267,221.079056 199.959549,252.294646 199.618215,270.550236 C199.276882,288.805826 197.075446,307.951262 197.075446,307.951262 C194.070318,309.112287 185.365908,310.361928 183.0656,308.541621 C183.0656,308.541621 185.822933,271.344492 180.248369,243.392492 C174.673805,215.440082 173.586215,206.241313 173.586215,206.241313 L196.535138,205.250954 Z" id="Fill-162" fill="#0D232B"></path>
            <path d="M162.152123,205.472903 C161.09161,213.014646 160.05079,239.319877 159.646687,256.310236 C159.242174,273.301005 155.71479,273.424492 151.437867,287.627569 C147.160533,301.831056 146.864328,305.555774 146.864328,305.555774 C148.284226,308.02839 156.77161,308.822646 159.864123,308.145723 C159.864123,308.145723 170.411405,283.103672 174.254687,269.719467 C178.097559,256.334851 183.741046,219.566441 184.885251,206.324595 L162.152123,205.472903 Z" id="Fill-163" fill="#172C34"></path>
            <path d="M196.471056,205.109128 L173.723979,205.471795 C173.723979,205.471795 173.766646,205.942359 173.888082,206.990564 L161.339979,206.819077 C161.305928,207.11241 161.272287,207.436923 161.239467,207.784821 C167.213621,209.823795 177.746133,212.414974 184.086646,211.482462 C189.234133,210.725128 194.377928,209.084513 196.779159,208.254974 C196.681518,207.150974 196.578954,206.099487 196.471056,205.109128" id="Fill-164" fill="#D6AB52"></path>
            <path d="M166.987856,143.91479 C163.775138,146.920328 157.350113,149.821662 153.619651,156.661456 C149.888779,163.501251 154.862728,181.94761 154.862728,181.94761 L160.873805,191.273969 L161.339856,206.818995 C169.772267,209.548021 189.778831,208.407508 196.470933,205.109046 C196.470933,205.109046 198.077087,178.942072 197.869908,168.268021 C197.662728,157.594379 194.760985,152.8272 190.511959,149.407713 C186.262933,145.987815 183.15401,144.329559 183.15401,144.329559 C183.15401,144.329559 181.496164,148.370995 176.521805,148.47479 C171.547446,148.578174 166.987856,143.91479 166.987856,143.91479" id="Fill-165" fill="#FCC14A"></path>
            <path d="M163.360862,163.138379 C165.61481,167.257764 167.091733,178.735097 167.091733,178.735097 L170.122708,192.906585 L176.185067,192.284636 C176.185067,192.284636 172.765169,181.403405 169.423221,173.631097 C166.081272,165.85879 163.360862,163.138379 163.360862,163.138379" id="Fill-166" fill="#D6AB52"></path>
            <path d="M190.408533,156.532185 C191.185969,160.651159 192.040944,170.44439 192.040944,170.44439 C192.040944,170.44439 196.781867,169.122954 196.704328,168.889928 C196.626379,168.656903 194.838892,163.682544 193.439918,161.117621 C192.040944,158.553108 190.408533,156.532185 190.408533,156.532185" id="Fill-167" fill="#D6AB52"></path>
            <path d="M188.774318,192.789785 C189.398318,188.451323 191.669087,171.001887 192.118318,167.544246 C192.164267,167.193067 192.444882,166.921477 192.796882,166.885785 L209.584164,165.178708 C210.071959,165.129067 210.478933,165.547118 210.416574,166.033272 L207.195241,191.145477 C207.150523,191.494605 206.872369,191.767426 206.522421,191.80599 L189.611241,193.652964 C189.116472,193.707118 188.703344,193.282503 188.774318,192.789785" id="Fill-168" fill="#34464D"></path>
            <path d="M188.618872,193.178421 C189.242872,188.839959 191.513641,171.390523 191.962872,167.932882 C192.008821,167.581703 192.289436,167.310113 192.641436,167.274421 L209.428718,165.567344 C209.916513,165.517703 210.323487,165.935754 210.261128,166.421908 L207.039795,191.534113 C206.995077,191.883241 206.716923,192.156062 206.366974,192.194626 L189.455795,194.0416 C188.961026,194.095754 188.547897,193.671138 188.618872,193.178421" id="Fill-169" fill="#0D232B"></path>
            <path d="M196.626503,199.668431 C191.496656,202.000328 175.951631,205.73079 170.045169,205.73079 C164.138297,205.73079 161.339938,204.176328 161.339938,204.176328 L160.873887,195.316021 L196.78199,194.694072 L196.626503,199.668431 Z" id="Fill-170" fill="#D6AB52"></path>
            <path d="M208.647344,179.391179 C206.642421,180.430359 204.331446,180.807385 204.776985,181.698462 C205.222523,182.589538 208.572677,181.173333 208.572677,181.173333 C208.572677,181.173333 204.917292,181.955692 204.917292,183.218051 C204.917292,184.48 208.349908,182.955077 208.349908,182.955077 C208.349908,182.955077 205.360369,184.041846 205.805497,184.78441 C206.251036,185.526564 208.201805,184.662564 208.201805,184.662564 C208.201805,184.662564 206.027036,185.727179 206.249805,186.210051 C206.472574,186.692513 207.907651,186.153026 208.704369,185.625436 C209.803446,184.898051 211.468267,182.212513 210.614523,179.539692 C209.760779,176.867282 208.870113,177.386667 208.870113,177.386667 L208.647344,179.391179 Z" id="Fill-171" fill="#F29D7E"></path>
            <path d="M206.419364,191.740513 C206.304492,191.107487 205.167262,191.028718 204.584697,191.030359 C205.155774,190.995897 206.23721,190.850256 206.160082,190.238154 C206.056697,189.408615 203.465928,189.616205 201.082338,189.408615 C201.048697,189.406154 201.009313,189.405744 200.974851,189.403282 C201.640697,189.072205 202.30121,188.690667 202.222441,188.515077 C201.803979,187.582974 196.393928,189.043077 194.500185,190.088821 C193.145518,190.323897 191.82121,190.572513 190.719262,190.756308 C187.610338,191.274051 171.029415,191.585026 171.029415,191.585026 C171.029415,191.585026 168.542441,182.98359 167.091774,178.734974 C163.322338,178.512615 156.275774,180.683282 154.862851,181.947692 C154.862851,181.947692 157.531569,197.802872 165.226338,200.290256 C172.920697,202.777231 192.818133,198.113846 198.181005,196.870359 C203.543467,195.626872 204.709415,195.471385 204.709415,194.849436 C204.709415,194.227487 203.232492,194.149949 203.232492,194.149949 C203.232492,194.149949 205.797415,193.838974 205.719877,193.294974 C205.641928,192.750974 203.543467,192.750974 203.543467,192.750974 C203.543467,192.750974 206.574851,192.595487 206.419364,191.740513" id="Fill-172" fill="#FFC9BC"></path>
            <polygon id="Fill-174" fill="#FFFFFF" points="285.022769 396.106667 306.584615 396.106667 306.584615 301.441641 285.022769 301.441641"></polygon>
            <polygon id="Fill-175" fill="#F1917E" points="285.022769 396.106667 306.584615 396.106667 306.584615 322.820923 285.022769 322.820923"></polygon>
            <polygon id="Fill-176" fill="#FCC85E" points="285.022769 396.106667 306.584615 396.106667 306.584615 344.444718 285.022769 344.444718"></polygon>
            <polygon id="Fill-177" fill="#315A69" points="285.022769 396.106667 306.584615 396.106667 306.584615 377.042872 285.022769 377.042872"></polygon>
            <polygon id="Fill-178" fill="#FFFFFF" points="323.570462 396.106667 345.132308 396.106667 345.132308 283.377231 323.570462 283.377231"></polygon>
            <polygon id="Fill-179" fill="#F1917E" points="323.570462 396.106667 345.132308 396.106667 345.132308 297.398974 323.570462 297.398974"></polygon>
            <polygon id="Fill-180" fill="#FCC85E" points="323.570462 396.106667 345.132308 396.106667 345.132308 344.180513 323.570462 344.180513"></polygon>
            <polygon id="Fill-181" fill="#315A69" points="323.570462 396.106667 345.132308 396.106667 345.132308 358.86441 323.570462 358.86441"></polygon>
            <polygon id="Fill-182" fill="#FFFFFF" points="246.475487 396.106667 268.037333 396.106667 268.037333 326.121026 246.475487 326.121026"></polygon>
            <polygon id="Fill-183" fill="#F1917E" points="246.475487 396.106667 268.037333 396.106667 268.037333 336.477949 246.475487 336.477949"></polygon>
            <polygon id="Fill-184" fill="#FCC85E" points="246.475487 396.106667 268.037333 396.106667 268.037333 360.627282 246.475487 360.627282"></polygon>
            <polygon id="Fill-185" fill="#315A69" points="246.475487 396.106667 268.037333 396.106667 268.037333 380.595692 246.475487 380.595692"></polygon>
            <polygon id="Fill-186" fill="#FFFFFF" points="207.928205 396.106667 229.489641 396.106667 229.489641 351.655795 207.928205 351.655795"></polygon>
            <polygon id="Fill-187" fill="#F1917E" points="207.928205 396.106667 229.489641 396.106667 229.489641 361.694769 207.928205 361.694769"></polygon>
            <polygon id="Fill-188" fill="#FCC85E" points="207.928205 396.106667 229.489641 396.106667 229.489641 375.63159 207.928205 375.63159"></polygon>
            <polygon id="Fill-189" fill="#315A69" points="207.928205 396.106667 229.489641 396.106667 229.489641 380.957538 207.928205 380.957538"></polygon>
            <polygon id="Fill-190" fill="#FFFFFF" points="169.380513 396.106667 190.941949 396.106667 190.941949 366.781949 169.380513 366.781949"></polygon>
            <polygon id="Fill-191" fill="#F1917E" points="169.380513 396.106667 190.941949 396.106667 190.941949 373.405128 169.380513 373.405128"></polygon>
            <polygon id="Fill-192" fill="#FCC85E" points="169.380513 396.106667 190.941949 396.106667 190.941949 376.907487 169.380513 376.907487"></polygon>
            <polygon id="Fill-193" fill="#315A69" points="169.380513 396.106667 190.941949 396.106667 190.941949 390.201436 169.380513 390.201436"></polygon>
            <path d="M357.566769,398.634749 C357.566769,400.030851 356.434872,401.162749 355.038769,401.162749 L161.353026,401.162749 C159.956103,401.162749 158.824205,400.030851 158.824205,398.634749 C158.824205,397.238646 159.956103,396.106338 161.353026,396.106338 L355.038769,396.106338 C356.434872,396.106338 357.566769,397.238646 357.566769,398.634749" id="Fill-194" fill="#5995AB"></path>
            <path d="M180.160533,367.456862 C179.892226,367.456862 179.638277,367.295221 179.533251,367.030605 C179.396226,366.683938 179.565662,366.292144 179.912328,366.154708 L218.742687,350.78199 L256.884636,325.558605 L295.740021,300.97481 C295.762585,300.960041 295.786379,300.947323 295.810585,300.935426 L334.062482,282.767631 C334.398892,282.607631 334.800944,282.75081 334.960944,283.087631 C335.120944,283.424041 334.977764,283.826503 334.641354,283.986092 L296.426379,302.136656 L257.616944,326.691323 L219.428226,351.945887 C219.389251,351.971733 219.347815,351.993477 219.304328,352.010708 L180.408738,367.409272 C180.327097,367.441682 180.242995,367.456862 180.160533,367.456862" id="Fill-195" fill="#184657"></path>
            <path d="M178.379692,366.782195 C178.379692,365.808656 179.176821,365.019323 180.160615,365.019323 C181.144,365.019323 181.941949,365.808656 181.941949,366.782195 C181.941949,367.755733 181.144,368.545067 180.160615,368.545067 C179.176821,368.545067 178.379692,367.755733 178.379692,366.782195" id="Fill-196" fill="#FFFFFF"></path>
            <path d="M180.160533,365.693621 C179.550482,365.693621 179.054072,366.181826 179.054072,366.782031 C179.054072,367.382236 179.550482,367.870441 180.160533,367.870441 C180.770585,367.870441 181.266995,367.382236 181.266995,366.782031 C181.266995,366.181826 180.770585,365.693621 180.160533,365.693621 M180.160533,369.219364 C178.806277,369.219364 177.705149,368.126031 177.705149,366.782031 C177.705149,365.438031 178.806277,364.344697 180.160533,364.344697 C181.51479,364.344697 182.615918,365.438031 182.615918,366.782031 C182.615918,368.126031 181.51479,369.219364 180.160533,369.219364" id="Fill-197" fill="#184657"></path>
            <path d="M216.33001,351.92201 C216.33001,350.948472 217.127549,350.159138 218.111344,350.159138 C219.094728,350.159138 219.892677,350.948472 219.892677,351.92201 C219.892677,352.895549 219.094728,353.684882 218.111344,353.684882 C217.127549,353.684882 216.33001,352.895549 216.33001,351.92201" id="Fill-198" fill="#FFFFFF"></path>
            <path d="M218.111262,350.833477 C217.50121,350.833477 217.0048,351.321682 217.0048,351.921887 C217.0048,352.522092 217.50121,353.010297 218.111262,353.010297 C218.721313,353.010297 219.217723,352.522092 219.217723,351.921887 C219.217723,351.321682 218.721313,350.833477 218.111262,350.833477 M218.111262,354.359221 C216.757005,354.359221 215.655877,353.265887 215.655877,351.921887 C215.655877,350.577887 216.757005,349.484554 218.111262,349.484554 C219.465108,349.484554 220.566646,350.577887 220.566646,351.921887 C220.566646,353.265887 219.465108,354.359221 218.111262,354.359221" id="Fill-199" fill="#184657"></path>
            <path d="M254.997087,326.692841 C254.997087,325.719303 255.794215,324.929969 256.77801,324.929969 C257.761805,324.929969 258.559344,325.719303 258.559344,326.692841 C258.559344,327.666379 257.761805,328.455713 256.77801,328.455713 C255.794215,328.455713 254.997087,327.666379 254.997087,326.692841" id="Fill-200" fill="#FFFFFF"></path>
            <path d="M256.777928,325.604308 C256.167877,325.604308 255.671467,326.092513 255.671467,326.692718 C255.671467,327.292923 256.167877,327.781128 256.777928,327.781128 C257.387979,327.781128 257.88439,327.292923 257.88439,326.692718 C257.88439,326.092513 257.387979,325.604308 256.777928,325.604308 M256.777928,329.130462 C255.424082,329.130462 254.322544,328.036718 254.322544,326.692718 C254.322544,325.348718 255.424082,324.255385 256.777928,324.255385 C258.132185,324.255385 259.233313,325.348718 259.233313,326.692718 C259.233313,328.036718 258.132185,329.130462 256.777928,329.130462" id="Fill-201" fill="#184657"></path>
            <path d="M293.862072,301.773374 C293.862072,300.799836 294.6592,300.010503 295.643405,300.010503 C296.62679,300.010503 297.424328,300.799836 297.424328,301.773374 C297.424328,302.746913 296.62679,303.536246 295.643405,303.536246 C294.6592,303.536246 293.862072,302.746913 293.862072,301.773374" id="Fill-202" fill="#FFFFFF"></path>
            <path d="M295.642913,300.68521 C295.032862,300.68521 294.536451,301.173005 294.536451,301.77321 C294.536451,302.373415 295.032862,302.861621 295.642913,302.861621 C296.252964,302.861621 296.749785,302.373415 296.749785,301.77321 C296.749785,301.173005 296.252964,300.68521 295.642913,300.68521 M295.642913,304.210954 C294.289067,304.210954 293.187528,303.117621 293.187528,301.77321 C293.187528,300.42921 294.289067,299.335877 295.642913,299.335877 C296.997169,299.335877 298.098708,300.42921 298.098708,301.77321 C298.098708,303.117621 296.997169,304.210954 295.642913,304.210954" id="Fill-203" fill="#184657"></path>
            <path d="M332.869251,283.377149 C332.869251,282.40361 333.66679,281.614277 334.650585,281.614277 C335.633969,281.614277 336.431508,282.40361 336.431508,283.377149 C336.431508,284.350687 335.633969,285.140021 334.650585,285.140021 C333.66679,285.140021 332.869251,284.350687 332.869251,283.377149" id="Fill-204" fill="#FFFFFF"></path>
            <path d="M334.650503,282.288574 C334.040451,282.288574 333.543631,282.776779 333.543631,283.376985 C333.543631,283.97719 334.040451,284.465395 334.650503,284.465395 C335.260554,284.465395 335.756964,283.97719 335.756964,283.376985 C335.756964,282.776779 335.260554,282.288574 334.650503,282.288574 M334.650503,285.814728 C333.296246,285.814728 332.194708,284.720985 332.194708,283.376985 C332.194708,282.032985 333.296246,280.939651 334.650503,280.939651 C336.004349,280.939651 337.105887,282.032985 337.105887,283.376985 C337.105887,284.720985 336.004349,285.814728 334.650503,285.814728" id="Fill-205" fill="#184657"></path>
            <path d="M286.679344,37.5862974 L285.404677,37.5862974 C285.270113,37.5862974 285.161805,37.4775795 285.161805,37.3434256 L285.161805,31.2125538 C285.161805,31.0784 285.270113,30.9696821 285.404677,30.9696821 C285.538421,30.9696821 285.647138,31.0784 285.647138,31.2125538 L285.647138,37.1005538 L286.679344,37.1005538 C286.813087,37.1005538 286.922215,37.2096821 286.922215,37.3434256 C286.922215,37.4775795 286.813087,37.5862974 286.679344,37.5862974" id="Fill-206" fill="#E85F5B"></path>
            <path d="M288.56119,37.5862974 L287.286523,37.5862974 C287.151959,37.5862974 287.043651,37.4775795 287.043651,37.3434256 L287.043651,31.2125538 C287.043651,31.0784 287.151959,30.9696821 287.286523,30.9696821 C287.420267,30.9696821 287.528985,31.0784 287.528985,31.2125538 L287.528985,37.1005538 L288.56119,37.1005538 C288.694933,37.1005538 288.804062,37.2096821 288.804062,37.3434256 C288.804062,37.4775795 288.694933,37.5862974 288.56119,37.5862974" id="Fill-207" fill="#E85F5B"></path>
            <path d="M275.890913,22.9892923 C275.890913,22.9892923 269.636144,19.1542154 268.311836,21.2477538 C266.722913,23.7593436 272.231426,25.1550359 272.231426,25.1550359 C272.231426,25.1550359 266.387323,23.9497026 266.523118,26.6294974 C266.658913,29.3088821 271.634913,28.1113436 271.634913,28.1113436 C271.634913,28.1113436 267.293169,30.0256 268.698708,32.2803692 C269.788349,34.0284718 273.083938,31.9008821 274.842708,30.5737026 C275.545067,30.0436513 276.466092,29.9033436 277.296451,30.1962667 C279.475733,30.9659077 283.775631,32.9351385 288.89481,31.1821128 C293.3264,29.6645744 294.429579,26.0772923 295.876144,23.7761641 C297.211528,21.6514462 298.832862,19.8413949 301.27881,19.1021128 C303.888862,18.3131897 304.792656,16.7583179 302.007015,14.9540103 C300.226092,13.8007795 296.219938,12.0805744 288.207221,17.9082667 C281.468759,22.8091897 275.890913,22.9892923 275.890913,22.9892923" id="Fill-208" fill="#E289A9"></path>
            <polygon id="Fill-209" fill="#FCC14A" points="301.953395 17.4372103 302.945395 15.5713641 305.829497 17.8491077 302.23319 18.8448"></polygon>
            <path d="M300.724226,16.5529846 C300.713149,17.0063179 300.336123,17.3652923 299.881969,17.3542154 C299.428226,17.3427282 299.069662,16.9657026 299.080738,16.5115487 C299.091815,16.0578051 299.469251,15.699241 299.922995,15.7103179 C300.376738,15.7218051 300.735713,16.099241 300.724226,16.5529846" id="Fill-210" fill="#000000"></path>
            <path d="M290.713436,23.0990769 C291.284103,25.2968205 290.012308,27.5540513 287.852308,28.254359 C286.356513,28.7392821 284.662154,29.2709744 283.483487,29.5872821 C280.895179,30.2830769 279.940513,29.9117949 280.144,29.3571282 C280.347487,28.8020513 284.277333,27.0970256 284.277333,27.0970256 C284.277333,27.0970256 278.729846,29.0313846 278.363487,27.9487179 C277.997128,26.8660513 283.169641,25.0547692 283.169641,25.0547692 C283.169641,25.0547692 278.626051,26.4611282 278.342564,25.5179487 C278.059077,24.5747692 281.862564,22.928 284.60841,21.5269744 C287.354667,20.1259487 289.137641,18.737641 289.137641,18.737641 C289.137641,18.737641 290.079179,20.705641 290.695385,23.0293333 L290.713436,23.0990769 Z" id="Fill-211" fill="#F2CAD8"></path>
            <polygon id="Fill-212" fill="#CBC7FF" points="301.953395 17.4372103 305.829497 17.8491077 302.23319 18.8448"></polygon>
            <path d="M97.2438564,267.132349 C98.9021128,256.976451 100.1456,245.577067 100.1456,245.577067 L85.8444718,244.955118 C85.6372923,259.877785 82.1136,278.116964 83.7718564,295.112656 C85.4301128,312.107938 86.8807795,316.0464 87.2955487,318.947733 C87.6327795,321.311631 94.2957538,320.649477 96.7556513,320.322503 C96.3667282,319.716964 96.0003692,317.931938 96.0003692,313.351426 C96.0003692,303.610297 95.5860103,277.287836 97.2438564,267.132349" id="Fill-213" fill="#FFC9BC"></path>
            <path d="M114.225067,266.988103 C115.605579,256.790769 116.538092,245.361436 116.538092,245.361436 L102.225477,245.130051 C102.424451,260.052718 99.3996308,278.381333 101.520246,295.324923 C103.640451,312.268923 105.198195,316.165949 105.691733,319.055385 C106.093785,321.408615 112.735836,320.565949 115.185887,320.172103 C114.780554,319.577231 114.365785,317.802872 114.241067,313.224 C113.975631,303.486564 112.844144,277.185026 114.225067,266.988103" id="Fill-214" fill="#FFC9BC"></path>
            <path d="M85.8444308,244.955241 C85.7952,248.499036 85.5584821,252.231549 85.2487385,256.088779 C88.1254564,256.687344 91.5449436,257.16119 95.5859692,257.390933 C96.6497641,257.451241 97.6733538,257.499241 98.6645333,257.538215 C99.5629949,250.914626 100.145559,245.57719 100.145559,245.57719 L85.8444308,244.955241 Z M116.537764,245.361395 C116.537764,245.361395 116.110277,250.598318 115.406687,257.143138 C112.278892,257.48119 107.825969,257.749087 101.85879,257.633395 C102.103713,253.286318 102.278482,249.087344 102.225559,245.13001 L116.537764,245.361395 Z" id="Fill-215" fill="#DAADA0"></path>
            <path d="M93.7206154,188.554215 C85.1191795,198.295344 76.3101538,213.037087 71.1290256,246.406113 C71.1290256,246.406113 76.7249231,252.416779 94.9641026,253.452677 C113.202872,254.489395 120.664615,252.20919 120.664615,252.20919 C120.664615,252.20919 122.530051,234.384779 120.664615,215.316472 C118.799179,196.248574 116.260103,188.087754 116.260103,188.087754 L93.7206154,188.554215 Z" id="Fill-216" fill="#E85F5B"></path>
            <path d="M99.3163897,121.129149 C103.409518,120.130585 106.327672,118.322585 108.254646,119.807713 C110.120082,121.245662 111.791056,121.86761 113.423467,122.41161 C115.055467,122.95561 116.026954,126.297969 115.249928,128.085456 C114.806031,129.105764 108.177108,133.526277 108.177108,133.526277 C108.177108,133.526277 110.042544,136.246687 111.674544,140.754174 C113.306954,145.262072 112.762544,145.029046 112.296492,147.749456 C111.830031,150.469867 114.861415,154.12279 110.275569,155.444226 C105.689723,156.765251 91.2335179,160.807097 87.1141333,158.397662 C82.9947487,155.988226 80.8183385,152.568328 83.0722872,149.381456 C85.3262359,146.194995 85.8706462,145.029046 85.3262359,141.5312 C84.7822359,138.034174 85.171159,135.158277 88.1245949,133.059815 C91.0780308,130.961354 92.1660308,130.805867 93.1764923,127.696944 C94.1869538,124.588021 96.1299282,121.906585 99.3163897,121.129149" id="Fill-217" fill="#383838"></path>
            <path d="M112.296369,147.749333 C112.762831,145.028923 113.306831,145.262359 111.674421,140.754051 C110.042421,136.246564 108.176985,133.526154 108.176985,133.526154 C108.176985,133.526154 109.633395,132.555077 111.226421,131.418256 L110.974933,130.235897 L100.093703,127.126564 C97.6067282,128.007795 93.927959,130.132103 93.7724718,133.552 C93.6169846,136.971487 94.4978051,140.546872 91.5960615,143.085949 C88.6947282,145.624615 88.5909333,147.697641 88.8502154,149.977436 C89.0701128,151.913846 85.5160615,155.419077 84.439959,156.431179 C85.1853949,157.13641 86.0896,157.798154 87.1140103,158.397538 C91.2333949,160.806974 105.6896,156.765538 110.275446,155.444103 C114.861292,154.122667 111.829908,150.469744 112.296369,147.749333" id="Fill-218" fill="#1E1E1E"></path>
            <path d="M103.797169,134.126359 C103.863221,136.199385 102.236554,137.933128 100.163938,137.999179 C98.0909128,138.066051 96.3563487,136.438974 96.2902974,134.365949 C96.2242462,132.292923 97.8509128,130.559179 99.9239385,130.493128 C101.996554,130.426256 103.730708,132.053333 103.797169,134.126359" id="Fill-219" fill="#FFC9BC"></path>
            <path d="M102.021497,134.182851 C102.056369,135.275364 101.199344,136.189415 100.106831,136.224287 C99.0143179,136.259159 98.1006769,135.401723 98.0653949,134.309621 C98.0305231,133.217108 98.887959,132.303056 99.9804718,132.268185 C101.072574,132.233313 101.986626,133.090749 102.021497,134.182851" id="Fill-220" fill="#D7A699"></path>
            <path d="M108.421744,167.250954 C112.186256,167.559467 115.585231,168.289313 117.590564,168.789005 C118.113641,166.916595 118.067282,165.060185 118.150564,163.098338 C118.196513,162.006236 117.208205,160.569108 116.474667,159.250133 C115.699692,157.856492 114.496,156.089518 112.995692,155.547979 C112.140308,155.238646 111.659487,155.554133 111.479795,154.243364 C111.130256,151.684185 110.722872,137.956185 110.722872,137.956185 L99.8268718,136.968697 C99.8268718,136.968697 100.481231,150.547364 99.9154872,152.695467 C99.3977436,154.660595 96.0406154,155.396185 91.8957949,156.786954 C93.8486154,160.014851 94.1115897,164.475979 93.3649231,168.182236 C98.064,165.351877 103.63159,166.858749 108.421744,167.250954" id="Fill-221" fill="#FFC9BC"></path>
            <path d="M106.366072,145.978092 C107.330995,146.277579 110.146585,146.602503 111.012226,146.361682 C110.942482,142.055631 110.722995,137.955938 110.722995,137.955938 L101.861867,137.166195 C101.714585,141.502605 103.525046,145.095631 106.366072,145.978092" id="Fill-224" fill="#E8BFB4"></path>
            <path d="M114.124103,133.735713 C114.292718,139.026379 112.380513,143.39561 107.812718,143.541251 C103.925128,143.665559 100.388718,139.512123 99.9550769,134.237046 C99.5222564,128.970995 101.379077,124.568533 106.778462,124.381867 C114.533128,124.114379 113.955077,128.445456 114.124103,133.735713" id="Fill-225" fill="#FFDBD1"></path>
            <path d="M103.362051,130.278974 C103.694769,130.100103 104.045128,129.947487 104.412718,129.848205 C104.776615,129.738667 105.154462,129.68 105.532308,129.640615 C105.911385,129.613128 106.292513,129.608205 106.669949,129.645949 C107.047385,129.684513 107.419897,129.748923 107.783385,129.875282 C107.824821,129.889641 107.846974,129.934769 107.832205,129.976615 C107.819897,130.012308 107.783795,130.033641 107.747692,130.029128 L107.742769,130.028718 C107.382974,129.984 107.014974,129.956103 106.651487,129.949128 C106.287179,129.940923 105.922872,129.946256 105.561846,129.984821 C105.19959,130.006974 104.840615,130.066051 104.484923,130.140718 C104.126769,130.20759 103.780923,130.32 103.426051,130.424205 L103.421949,130.425026 C103.380103,130.437744 103.336205,130.413128 103.323487,130.371282 C103.312821,130.334769 103.329641,130.296205 103.362051,130.278974" id="Fill-226" fill="#383838"></path>
            <path d="M110.968656,129.865518 C111.394503,129.648082 111.867528,129.546338 112.339323,129.489313 C112.813169,129.4528 113.2944,129.459364 113.755528,129.582031 C113.798195,129.593108 113.824041,129.637005 113.812964,129.680082 C113.803528,129.714133 113.77399,129.737518 113.740759,129.739569 C113.276759,129.775262 112.823836,129.779364 112.372964,129.833518 C111.919631,129.867159 111.476144,129.94921 111.017067,130.016492 C110.973579,130.023467 110.932554,129.993108 110.92599,129.94921 C110.920656,129.914338 110.939118,129.881108 110.968656,129.865518" id="Fill-227" fill="#383838"></path>
            <path d="M106.297969,132.127549 C106.306585,132.406933 106.087097,132.640779 105.808123,132.649395 C105.528328,132.658831 105.294482,132.439344 105.285456,132.159549 C105.276431,131.879754 105.495918,131.646318 105.775713,131.637292 C106.055097,131.628267 106.288944,131.847754 106.297969,132.127549" id="Fill-228" fill="#000000"></path>
            <path d="M113.528328,131.864738 C113.537354,132.144533 113.317867,132.378379 113.038482,132.386995 C112.758687,132.396431 112.525251,132.176944 112.515815,131.897149 C112.5072,131.617354 112.726687,131.383918 113.006072,131.374892 C113.285456,131.365867 113.519713,131.585354 113.528328,131.864738" id="Fill-229" fill="#000000"></path>
            <path d="M113.034749,155.521764 C116.493621,156.959713 121.079056,159.174687 122.245005,167.102482 C123.410954,175.030277 123.099979,181.559097 123.099979,181.559097 C123.099979,181.559097 121.856492,182.180636 119.291569,182.336123 C116.726646,182.49161 114.550236,182.180636 114.550236,182.180636 C114.550236,182.180636 114.705723,166.791508 114.394749,162.594585 C114.084185,158.397662 113.034749,155.521764 113.034749,155.521764" id="Fill-232" fill="#035E80"></path>
            <path d="M113.034749,155.521764 C116.493621,156.959713 121.079056,159.174687 122.245005,167.102482 C123.410954,175.030277 123.099979,181.559097 123.099979,181.559097 C123.099979,181.559097 121.856492,182.180636 119.291569,182.336123 C116.726646,182.49161 114.550236,182.180636 114.550236,182.180636 C114.550236,182.180636 114.705723,166.791508 114.394749,162.594585 C114.084185,158.397662 113.034749,155.521764 113.034749,155.521764" id="Fill-233" fill="#004762"></path>
            <path d="M110.239877,131.573046 L111.650338,134.0272 C111.817313,134.317251 111.62121,134.681969 111.287262,134.702892 L109.763979,134.798892 L110.239877,131.573046 Z" id="Fill-234" fill="#DCB0A4"></path>
            <path d="M112.246687,136.808615 C112.269251,137.517128 111.298995,138.122667 110.080123,138.161641 C108.860841,138.200615 107.854072,137.657846 107.831508,136.949744 C107.808944,136.241231 108.830072,136.738051 110.049354,136.699077 C111.268226,136.660513 112.223713,136.100103 112.246687,136.808615" id="Fill-235" fill="#ED6D53"></path>
            <path d="M99.8732718,136.963692 C99.8790154,137.138872 99.7415795,137.285333 99.5659897,137.291077 C99.3908103,137.296821 99.2443487,137.159385 99.2386051,136.983795 C99.2328615,136.808615 99.3702974,136.662154 99.5458872,136.65641 C99.7210667,136.650667 99.8675282,136.788103 99.8732718,136.963692" id="Fill-236" fill="#FFFFFF"></path>
            <path d="M109.07081,124.121518 C108.25481,125.675979 107.555323,126.142441 105.378913,127.424903 C103.202503,128.707364 102.852964,129.795364 102.697477,131.699774 C102.54199,133.603774 103.396964,135.585723 102.231015,137.412185 C101.065067,139.238646 98.5785026,142.464082 98.5785026,142.464082 C98.5785026,142.464082 97.5290667,140.637621 97.7625026,139.083159 C97.9955282,137.529108 99.8215795,134.070236 99.5885538,131.777313 C99.3551179,129.48439 97.4515282,125.326441 100.404554,123.655056 C103.35799,121.984082 109.07081,124.121518 109.07081,124.121518" id="Fill-237" fill="#383838"></path>
            <path d="M95.8969026,155.107118 C93.0989538,155.936246 88.9533128,157.179733 85.8443897,161.01399 C82.7354667,164.848656 80.3518769,174.382195 79.7303385,178.527836 C79.1083897,182.672656 78.7974154,184.641887 78.7974154,184.641887 C78.7974154,184.641887 80.2484923,183.916554 82.7354667,184.020349 C85.222441,184.124144 87.2696205,185.056656 87.2696205,185.056656 L89.6790564,175.0304 L87.4251077,189.409067 C87.4251077,189.409067 100.352697,190.445374 106.467159,190.031015 C112.58121,189.616246 116.337928,188.243528 116.337928,188.243528 L116.623056,175.211733 C116.623056,175.211733 119.835774,170.522092 118.825313,167.491118 C117.814851,164.460144 116.026954,160.081477 116.415877,157.205579 C115.71639,156.739528 114.240697,155.796349 112.879467,155.405374 C112.879467,155.405374 115.210954,161.817272 113.267979,162.983221 C111.324595,164.149169 101.958851,164.304656 99.5494154,163.605169 C97.1403897,162.905682 95.8969026,155.107118 95.8969026,155.107118" id="Fill-238" fill="#035E80"></path>
            <path d="M108.693005,198.347077 C110.586749,197.663179 111.431467,196.88041 111.363774,196.170667 C111.233723,194.809436 103.428185,190.691692 100.841928,189.363282 L101.492595,177.828103 C101.492595,177.828103 95.819159,176.429128 95.5861333,172.232205 C95.3526974,168.034872 91.4667487,165.39241 91.4667487,165.39241 C91.4667487,165.39241 90.4562872,171.454769 89.6788513,175.030154 L87.4638769,189.448205 C87.4638769,189.448205 91.3888,189.564718 92.6626462,189.777231 C90.2175179,192.666256 87.7682872,196.004103 85.4027487,200.100513 C87.7814154,200.208 91.1286974,200.260923 95.6636718,200.134564 C96.9198769,200.099692 98.0915692,200.043077 99.1840821,199.968 C100.014031,199.910974 100.715569,200.570256 100.715569,201.401846 L100.715569,202.585026 C100.715569,203.325538 101.247672,203.959385 101.977108,204.087385 C105.963979,203.997949 116.383262,205.672205 119.719056,207.207795 L118.553108,198.347077 L108.693005,198.347077 Z" id="Fill-239" fill="#004762"></path>
            <polygon id="Fill-240" fill="#41B093" points="101.648 202.466462 130.716718 202.466462 130.716718 173.398154 101.648 173.398154"></polygon>
            <polygon id="Fill-241" fill="#2B8D73" points="122.575179 202.466462 130.716718 202.466462 130.716718 173.398154 122.575179 173.398154"></polygon>
            <path d="M130.469826,190.236923 C128.464903,191.276103 126.153928,191.653128 126.599467,192.543795 C127.045005,193.434872 130.395159,192.018667 130.395159,192.018667 C130.395159,192.018667 126.739774,192.801436 126.739774,194.063385 C126.739774,195.325333 130.17239,193.80041 130.17239,193.80041 C130.17239,193.80041 127.182851,194.887179 127.627979,195.629744 C128.073518,196.371897 130.024287,195.507897 130.024287,195.507897 C130.024287,195.507897 127.849518,196.572923 128.072287,197.055385 C128.295056,197.538256 129.730133,196.998359 130.526851,196.471179 C131.625928,195.743385 133.290749,193.057846 132.437005,190.385026 C131.583262,187.712615 130.692185,188.232 130.692185,188.232 L130.469826,190.236923 Z" id="Fill-242" fill="#FFC9BC"></path>
            <path d="M107.425764,189.201682 C107.244431,190.108759 106.596636,190.989169 106.596636,190.989169 C106.596636,190.989169 110.042379,191.740349 109.912738,192.362297 C109.783097,192.984246 108.928123,193.787528 108.928123,193.787528 C108.928123,193.787528 110.119918,192.880862 109.783097,193.605785 C109.446687,194.331528 108.228636,195.108554 108.228636,195.108554 L108.850585,195.419528 C108.850585,195.419528 108.565456,196.119015 105.975097,197.103631 C103.383918,198.088246 101.596431,198.813579 101.622277,198.735631 C101.648123,198.658092 101.596431,191.559426 101.596431,191.559426 L107.425764,189.201682 Z" id="Fill-243" fill="#000000" opacity="0.191127232"></path>
            <path d="M78.7975385,184.641969 C78.0722051,191.066995 78.2793846,196.663303 82.7355897,197.595815 C87.1917949,198.528738 104.732718,196.540636 107.736615,195.912123 C109.964718,195.445662 108.410256,194.590687 108.410256,194.590687 C108.410256,194.590687 110.353231,193.813251 109.731282,193.191713 C109.109744,192.569764 110.275692,192.621456 109.860923,192.05161 C109.446564,191.481764 109.109744,191.403815 109.109744,191.403815 C109.109744,191.403815 110.068513,191.119097 109.67959,190.62679 C109.291077,190.134482 105.560205,190.289969 105.560205,190.289969 L106.829128,190.001149 C107.271795,189.899815 107.568,189.482174 107.516308,189.030482 L107.50359,188.916841 C107.50359,188.916841 105.482667,188.838892 102.192,189.87561 C98.9021538,190.911508 86.3105641,191.144944 86.3105641,191.144944 L87.2693333,185.056738 C87.2693333,185.056738 86.2330256,184.201764 83.3833846,183.968328 C80.5333333,183.735303 78.7975385,184.641969 78.7975385,184.641969" id="Fill-244" fill="#FFC9BC"></path>
            <path d="M83.4610051,302.029785 C83.4610051,302.029785 84.8082872,313.817682 85.1192615,316.875323 C85.3092103,318.745272 85.3252103,320.480246 85.3083897,321.544862 C85.2989538,322.141785 85.7793641,322.675938 86.3762872,322.679647 L101.845005,322.679647 C102.263467,322.682092 102.608492,322.400656 102.627364,321.982605 C102.658954,321.267118 102.520287,320.263221 101.544697,320.035938 C100.579364,319.810708 99.0745436,319.205579 98.0722872,318.779323 C97.4450051,318.512656 97.0388513,317.897272 97.0421333,317.215836 L97.8138256,301.770913 L83.4610051,302.029785 Z" id="Fill-248" fill="#FAF8DC"></path>
            <path d="M85.3082645,321.544985 C85.2993641,322.141908 85.7793641,322.676062 86.3766974,322.679765 L101.845005,322.679765 C102.263467,322.681805 102.608492,322.400779 102.627364,321.982318 C102.634338,321.811651 102.632287,321.623754 102.611364,321.434626 L85.3096205,321.434626 C85.3092103,321.469908 85.3092103,321.510933 85.3082645,321.544985" id="Fill-249" fill="#20353C"></path>
            <path d="M101.596431,302.288985 C101.596431,302.288985 102.943713,314.076882 103.254687,317.134113 C103.444636,319.004472 103.460226,320.739446 103.443815,321.804062 C103.434379,322.400985 103.91479,322.935138 104.511713,322.938847 L119.980431,322.938847 C120.398892,322.941292 120.743918,322.659446 120.76279,322.241805 C120.794379,321.526318 120.655713,320.522421 119.680123,320.295138 C118.71479,320.069497 117.209969,319.464369 116.207713,319.038523 C115.580431,318.771856 115.174277,318.156472 115.177559,317.475036 L115.949251,302.029703 L101.596431,302.288985 Z" id="Fill-250" fill="#FAF8DC"></path>
            <path d="M103.443649,321.804226 C103.434749,322.401149 103.914749,322.935303 104.512082,322.939006 L119.98039,322.939006 C120.398851,322.941046 120.743877,322.65961 120.762749,322.241559 C120.769723,322.070482 120.767672,321.882995 120.746749,321.693456 L103.445005,321.693456 C103.444595,321.729149 103.444595,321.769764 103.443649,321.804226" id="Fill-251" fill="#20353C"></path>
        </g>
    </g>
</svg>